<?xml version="1.0" encoding="utf-8"?>
<!-- Generator: Adobe Illustrator 23.0.4, SVG Export Plug-In . SVG Version: 6.00 Build 0)  -->
<svg version="1.1" id="Vrstva_1" xmlns="http://www.w3.org/2000/svg" xmlns:xlink="http://www.w3.org/1999/xlink" x="0px" y="0px"
	 viewBox="0 0 1169.842 331.797" style="enable-background:new 0 0 1169.842 331.797;" xml:space="preserve">
<style type="text/css">
	.st0{fill:url(#SVGID_1_);}
	.st1{fill:url(#SVGID_2_);}
	.st2{fill:url(#SVGID_3_);}
	.st3{fill:#35503C;}
	.st4{fill:url(#SVGID_4_);}
	.st5{fill:url(#SVGID_5_);}
	.st6{fill:#193021;}
	.st7{fill:#48AC35;}
	.st8{fill:none;}
	.st9{fill:url(#SVGID_6_);}
	.st10{fill:url(#SVGID_7_);}
</style>
<linearGradient id="SVGID_1_" gradientUnits="userSpaceOnUse" x1="230.501" y1="270.6826" x2="199.3121" y2="188.397">
	<stop  offset="0.0014" style="stop-color:#2D4635"/>
	<stop  offset="1" style="stop-color:#1E1E1C"/>
</linearGradient>
<path class="st0" d="M149.725,252.611l121.306-70.038l-121.306,4.575V252.611z"/>
<linearGradient id="SVGID_2_" gradientUnits="userSpaceOnUse" x1="305.6661" y1="339.5093" x2="241.3137" y2="169.7285">
	<stop  offset="0" style="stop-color:#1F7031"/>
	<stop  offset="1" style="stop-color:#299137"/>
</linearGradient>
<path class="st1" d="M149.722,187.146l121.306-70.038l74.652,68.907l-106.839,78.363L149.722,187.146z"/>
<linearGradient id="SVGID_3_" gradientUnits="userSpaceOnUse" x1="149.7216" y1="146.2455" x2="390.0645" y2="146.2455" gradientTransform="matrix(1 0 0 -1 0 329.7323)">
	<stop  offset="0.0014" style="stop-color:#2D4635"/>
	<stop  offset="1" style="stop-color:#1E1E1C"/>
</linearGradient>
<path class="st2" d="M390.065,73.797l-0.075,0.037c-0.526,4.853-4.026,9.422-9.71,12.914c0.003,0.005,0.006,0.009,0.009,0.014
	l-15.679,9.052l-16.461,9.503l-9.791,5.653l0,0l-18.556,10.713v65.463l-9.304,5.371l-20.844,12.034l-19.365,11.18l-2.771,1.6
	l-4.41,2.546l0,0l0,0l-0.002,0.001l-3.226,1.863c-8.691,4.995-21.654,7.24-34.402,5.247c-6.279-0.982-11.722-2.87-16.017-5.352
	l-15.006-8.664l-44.733-25.826v65.463l44.736,25.828l15.006,8.664c4.295,2.483,9.738,4.37,16.017,5.352
	c3.186,0.498,6.386,0.732,9.53,0.724c9.432-0.024,18.354-2.224,24.873-5.971l10.409-6.01l49.512-28.586l-0.002-0.001l28.345-16.365
	l16.461-9.503l11.855-6.844l3.824-2.208c-0.003-0.005-0.006-0.009-0.009-0.014c6.247-3.837,9.851-8.976,9.772-14.363
	c-0.001-0.091-0.015-0.182-0.018-0.273c0.01,0,0.021,0,0.031,0L390.065,73.797L390.065,73.797z"/>
<g>
	<path class="st3" d="M388.87,67.284c-1.754-3.82-5.266-7.092-9.897-9.614c0.004-0.005,0.007-0.01,0.011-0.014l-8.87-5.121
		L348.15,39.854l-3.907-2.256c-0.005,0.003-0.01,0.006-0.015,0.009c-8.678-4.716-21.283-6.792-33.688-4.853
		c-6.011,0.94-11.253,2.712-15.459,5.039c-0.001-0.002-0.001-0.004-0.002-0.005l-3.944,2.252l-56.37,32.545l0,0l75.736,43.726
		l9.303,5.371l0.001-0.001l28.346-16.366l16.461-9.503l15.679-9.052c-0.003-0.005-0.006-0.01-0.009-0.014
		c5.684-3.492,9.184-8.061,9.71-12.914C390.223,71.683,389.877,69.477,388.87,67.284z"/>
</g>
<linearGradient id="SVGID_4_" gradientUnits="userSpaceOnUse" x1="236.1975" y1="-56.995" x2="359.6259" y2="150.0461">
	<stop  offset="0" style="stop-color:#FFFFFF;stop-opacity:0.2"/>
	<stop  offset="1" style="stop-color:#FFFFFF;stop-opacity:0"/>
</linearGradient>
<path class="st4" d="M388.87,67.284c-1.754-3.82-5.266-7.092-9.897-9.614c0.004-0.005,0.007-0.01,0.011-0.014l-8.87-5.121
	L348.15,39.854l-3.907-2.256c-0.005,0.003-0.01,0.006-0.015,0.009c-8.678-4.716-21.283-6.792-33.688-4.853
	c-6.011,0.94-11.253,2.712-15.459,5.039c-0.001-0.002-0.001-0.004-0.002-0.005l-3.944,2.252l-56.37,32.545l0,0l75.736,43.726
	l9.303,5.371l0.001-0.001l28.346-16.366l16.461-9.503l15.679-9.052c-0.003-0.005-0.006-0.01-0.009-0.014
	c5.684-3.492,9.184-8.061,9.71-12.914C390.223,71.683,389.877,69.477,388.87,67.284z"/>
<linearGradient id="SVGID_5_" gradientUnits="userSpaceOnUse" x1="337.7918" y1="289.5055" x2="267.8546" y2="104.9901">
	<stop  offset="0" style="stop-color:#1F2D31"/>
	<stop  offset="1" style="stop-color:#299137"/>
</linearGradient>
<polygon class="st5" points="234.763,138.049 319.802,187.146 319.803,121.682 234.764,72.585 "/>
<g>
	<path class="st6" d="M470.499,173.922c0.883,0.634,2.465,1.454,4.74,2.464c2.275,1.014,5.086,2.056,8.436,3.128
		c3.347,1.076,7.171,1.991,11.47,2.749c4.295,0.759,8.972,1.138,14.029,1.138c6.57,0,11.943-0.853,16.114-2.56
		c4.17-1.706,6.256-4.645,6.256-8.815c0-3.536-1.327-6.223-3.981-8.057c-2.654-1.831-7.394-3.128-14.219-3.887l-14.787-1.706
		c-5.056-0.504-9.701-1.422-13.934-2.749c-4.236-1.327-7.867-3.128-10.9-5.402c-3.033-2.275-5.403-5.087-7.109-8.437
		c-1.706-3.348-2.559-7.361-2.559-12.038c0-4.044,0.788-7.868,2.37-11.47c1.579-3.603,4.076-6.792,7.488-9.574
		c3.413-2.778,7.868-4.958,13.365-6.54c5.498-1.579,12.163-2.37,20-2.37c13.143,0,23.348,1.455,30.617,4.36
		c7.266,2.909,10.9,6.701,10.9,11.375c0,1.517-0.284,2.844-0.853,3.981c-0.568,1.138-1.203,2.15-1.896,3.033
		c-0.696,0.886-1.422,1.611-2.18,2.18s-1.327,0.919-1.706,1.043c-0.507-0.504-1.612-1.295-3.318-2.37
		c-1.706-1.072-4.014-2.147-6.919-3.223c-2.909-1.072-6.384-2.02-10.427-2.844c-4.046-0.82-8.72-1.232-14.029-1.232
		c-14.663,0-21.991,3.857-21.991,11.564c0,3.288,1.389,5.782,4.17,7.488c2.779,1.707,6.76,2.877,11.943,3.508l19.337,2.464
		c10.489,1.393,18.641,4.266,24.456,8.626c5.812,4.36,8.721,10.776,8.721,19.242c0,9.479-3.762,17.062-11.28,22.75
		c-7.521,5.688-18.359,8.531-32.513,8.531c-6.825,0-13.019-0.507-18.579-1.517c-5.563-1.014-10.397-2.181-14.503-3.508
		c-4.108-1.327-7.426-2.621-9.953-3.886c-2.53-1.263-4.171-2.21-4.929-2.844L470.499,173.922z"/>
	<path class="st6" d="M572.112,136.385c0-6.066,1.073-11.375,3.224-15.925c2.147-4.55,5.086-8.341,8.815-11.374
		c3.726-3.033,8.119-5.338,13.176-6.92c5.053-1.579,10.551-2.37,16.493-2.37c7.835,0,14.849,1.455,21.043,4.36
		c6.191,2.909,11.12,7.204,14.787,12.892c3.664-5.688,8.531-9.982,14.598-12.892c6.066-2.905,12.953-4.36,20.664-4.36
		c5.812,0,11.247,0.759,16.304,2.275c5.054,1.517,9.414,3.792,13.081,6.825c3.664,3.033,6.57,6.824,8.721,11.374
		c2.147,4.55,3.223,9.858,3.223,15.925v61.424h-21.612v-54.03c0-8.721-1.961-14.944-5.877-18.674
		c-3.919-3.726-9.227-5.592-15.924-5.592c-6.446,0-11.849,2.085-16.209,6.256c-4.36,4.171-6.541,10.934-6.541,20.285v51.755h-21.613
		v-51.754c0-9.352-2.18-16.114-6.54-20.285c-4.36-4.171-9.764-6.256-16.209-6.256c-6.573,0-11.881,1.896-15.925,5.687
		c-4.046,3.792-6.066,10.048-6.066,18.769v53.841h-21.612v-61.236H572.112z"/>
	<path class="st6" d="M833.918,197.24c-1.266,0.255-3.256,0.537-5.972,0.854c-2.72,0.314-5.91,0.631-9.574,0.948
		c-3.667,0.313-7.772,0.598-12.322,0.853c-4.55,0.252-9.29,0.38-14.219,0.38c-9.858,0-17.915-0.854-24.171-2.56
		c-6.257-1.706-11.186-3.981-14.787-6.825c-3.603-2.844-6.067-6.129-7.394-9.858c-1.327-3.726-1.991-7.55-1.991-11.469
		c0-5.181,0.788-9.731,2.37-13.65c1.579-3.916,4.171-7.203,7.772-9.857c3.603-2.654,8.309-4.645,14.124-5.972
		c5.812-1.327,12.891-1.991,21.232-1.991c4.802,0,9.352,0.16,13.649,0.475c4.296,0.316,7.519,0.601,9.669,0.853
		c0-4.422-0.729-8.087-2.181-10.995c-1.454-2.906-3.444-5.181-5.972-6.825c-2.529-1.641-5.562-2.778-9.1-3.412
		c-3.54-0.631-7.459-0.948-11.754-0.948c-7.204,0-12.986,0.823-17.347,2.465c-4.359,1.644-7.236,3.033-8.625,4.171
		c-0.759-0.631-1.802-1.831-3.128-3.603c-1.327-1.769-1.991-3.916-1.991-6.445c0-1.769,0.474-3.507,1.422-5.214
		c0.948-1.706,2.622-3.223,5.024-4.55c2.398-1.327,5.622-2.369,9.668-3.128c4.043-0.758,9.162-1.138,15.356-1.138
		c7.455,0,14.247,0.729,20.379,2.181c6.129,1.454,11.404,3.762,15.83,6.92c4.423,3.16,7.867,7.331,10.332,12.512
		c2.465,5.184,3.697,11.439,3.697,18.769v57.059H833.918z M812.495,155.154c-1.265-0.252-3.635-0.631-7.109-1.138
		c-3.478-0.503-8.69-0.758-15.64-0.758c-8.597,0-14.853,1.297-18.769,3.886c-3.919,2.592-5.877,6.668-5.877,12.229
		c0,2.274,0.408,4.36,1.232,6.256c0.82,1.896,2.242,3.507,4.266,4.834c2.02,1.327,4.769,2.34,8.246,3.033
		c3.475,0.696,7.803,1.043,12.986,1.043c5.812,0,10.427-0.22,13.839-0.664c3.413-0.441,5.688-0.787,6.825-1.042v-27.679H812.495z"/>
	<path class="st7" d="M897.648,89.028c0-2.666,0.364-4.971,1.092-6.912c0.728-1.938,1.665-3.547,2.819-4.82
		c1.151-1.272,2.483-2.242,4.002-2.91c1.515-0.665,3.061-1.119,4.638-1.364c1.211-0.241,2.638-0.482,4.274-0.728
		c1.638-0.241,3.698-0.454,6.185-0.637c2.484-0.182,5.517-0.332,9.095-0.454c3.575-0.119,7.913-0.182,13.006-0.182
		c10.913,0,20.008,1.182,27.284,3.547c7.275,2.364,13.125,5.548,17.553,9.549c4.425,4.002,7.577,8.581,9.459,13.733
		c1.878,5.155,2.819,10.521,2.819,16.098c0,7.398-1.519,14.037-4.548,19.917c-3.032,5.884-8.003,10.704-14.915,14.461
		c1.818,2.91,3.819,6.307,6.002,10.187c2.183,3.882,4.457,7.975,6.821,12.277c2.364,4.306,4.698,8.763,7.003,13.369
		c2.302,4.61,4.485,9.096,6.548,13.461h-34.741c-0.608-1.333-1.729-3.849-3.365-7.549c-1.637-3.697-3.519-7.699-5.639-12.005
		c-2.123-4.303-4.306-8.518-6.549-12.642c-2.245-4.121-4.154-7.336-5.729-9.641c-1.699,0.244-3.428,0.363-5.184,0.363
		c-1.76,0-3.609,0-5.548,0c-0.728,0-1.729-0.028-3.001-0.091c-1.273-0.06-2.578-0.119-3.911-0.182
		c-1.336-0.06-2.547-0.119-3.638-0.182c-1.092-0.06-1.819-0.151-2.183-0.273v42.2h-29.649L897.648,89.028L897.648,89.028z
		 M927.297,129.59c0.363,0,0.878,0.062,1.546,0.183c0.665,0.122,1.605,0.244,2.819,0.363c1.211,0.122,2.757,0.213,4.639,0.273
		c1.878,0.062,4.212,0.091,7.003,0.091c5.212,0,9.486-0.455,12.823-1.364c3.334-0.91,5.94-2.12,7.821-3.638
		c1.879-1.516,3.152-3.274,3.82-5.275c0.665-2.001,1-4.03,1-6.094c0-1.938-0.304-3.91-0.909-5.911
		c-0.608-2.001-1.851-3.849-3.729-5.548c-1.881-1.697-4.578-3.093-8.094-4.184c-3.519-1.092-8.186-1.638-14.006-1.638
		c-4.246,0-7.611,0.092-10.096,0.273c-2.486,0.182-4.032,0.335-4.638,0.455v32.014H927.297z"/>
	<path class="st7" d="M1023.153,89.028c0-2.666,0.364-4.971,1.092-6.912c0.728-1.938,1.665-3.547,2.819-4.82
		c1.151-1.272,2.483-2.242,4.002-2.91c1.515-0.665,3.061-1.119,4.638-1.364c2.303-0.482,5.667-0.938,10.096-1.364
		c4.425-0.423,10.941-0.636,19.554-0.636c11.277,0,21.491,1.395,30.649,4.184c9.154,2.79,16.976,6.911,23.464,12.368
		c6.485,5.457,11.488,12.159,15.007,20.1c3.516,7.943,5.274,17.069,5.274,27.375c0,10.187-1.637,19.253-4.911,27.193
		c-3.274,7.943-8.156,14.674-14.643,20.19c-6.488,5.52-14.552,9.731-24.191,12.642c-9.641,2.91-20.827,4.365-33.561,4.365
		c-13.704,0-23.555-0.272-29.558-0.818c-6.002-0.546-9.248-0.881-9.731-1L1023.153,89.028L1023.153,89.028z M1053.53,170.699
		c0.728,0.122,2.333,0.273,4.82,0.455c2.483,0.182,5.485,0.272,9.004,0.272c6.062,0,11.578-0.696,16.552-2.092
		c4.971-1.393,9.245-3.575,12.824-6.548c3.575-2.97,6.335-6.759,8.275-11.368c1.938-4.607,2.911-10.064,2.911-16.371
		c0-5.334-0.79-10.246-2.365-14.733c-1.577-4.484-3.973-8.367-7.185-11.642c-3.215-3.273-7.276-5.82-12.188-7.64
		c-4.911-1.818-10.703-2.728-17.37-2.728c-4.73,0-8.367,0.091-10.914,0.272s-4.002,0.335-4.365,0.455v71.668H1053.53z"/>
</g>
<g>
	<path class="st8" d="M207.809,219.879l0.002-0.001L207.809,219.879z"/>
	
		<linearGradient id="SVGID_6_" gradientUnits="userSpaceOnUse" x1="79.4625" y1="166.5286" x2="319.8035" y2="166.5286" gradientTransform="matrix(1 0 0 -1 0 329.7323)">
		<stop  offset="0.5306" style="stop-color:#299137"/>
		<stop  offset="1" style="stop-color:#1F7031"/>
	</linearGradient>
	<path class="st9" d="M310.497,127.055l-40.208,23.214l-1.592,0.919l-8.635,4.985l-0.001,0.001l-0.181,0.105
		c-6.076,3.492-14.241,5.633-22.959,5.929c-0.1,0.004-0.199,0.003-0.298,0.007c-0.618,0.018-1.237,0.032-1.861,0.031
		c-0.623,0.001-1.242-0.013-1.861-0.031c-0.1-0.003-0.199-0.003-0.298-0.007c-8.718-0.296-16.884-2.437-22.959-5.929l-0.181-0.105
		l-0.001-0.001l-15.006-8.664l-33.778-19.502l-10.954-6.324l-28.346-16.366l-16.461-9.503l-15.679-9.052
		c0.003-0.005,0.006-0.009,0.009-0.014c-5.684-3.492-9.184-8.061-9.71-12.914l-0.075-0.037v129.245c0.01,0,0.021,0,0.031,0
		c-0.003,0.091-0.017,0.182-0.018,0.273c-0.079,5.387,3.525,10.526,9.772,14.363c-0.003,0.005-0.006,0.009-0.009,0.014l3.824,2.208
		l11.855,6.844l16.461,9.503l28.346,16.364v-65.463l44.733,25.826l15.006,8.664c4.295,2.483,9.738,4.37,16.017,5.352
		c12.748,1.994,25.711-0.252,34.402-5.247l3.226-1.863l0.002-0.001l4.41-2.546l22.135-12.78l20.844-12.034l9.304-5.371v-65.463
		L310.497,127.055z"/>
	<path class="st7" d="M310.497,116.312l-75.736-43.726l-56.37-32.545l-3.944-2.252c-0.001,0.002-0.001,0.004-0.002,0.005
		c-4.205-2.328-9.448-4.099-15.458-5.039c-12.406-1.94-25.011,0.137-33.688,4.853c-0.005-0.003-0.01-0.006-0.015-0.009l-3.907,2.256
		l-21.966,12.68l-8.87,5.121c0.004,0.005,0.007,0.01,0.011,0.014c-4.631,2.521-8.144,5.793-9.897,9.614
		c-1.007,2.193-1.353,4.399-1.12,6.55c0.526,4.853,4.026,9.422,9.71,12.914c-0.003,0.004-0.006,0.009-0.009,0.014l15.679,9.052
		l16.46,9.503l28.346,16.366l9.303,5.371l1.651,0.953l38.558,22.261l10.228,5.905c1.611,0.931,3.383,1.778,5.3,2.525
		c3.195,1.245,6.792,2.213,10.716,2.826c2.377,0.372,4.762,0.595,7.125,0.682c0.099,0.003,0.199,0.004,0.298,0.006
		c0.622,0.02,1.242,0.03,1.861,0.031c0.618-0.001,1.239-0.011,1.861-0.031c0.099-0.003,0.199-0.003,0.299-0.006
		c2.363-0.087,4.748-0.31,7.125-0.682c3.139-0.491,6.069-1.208,8.751-2.113c0.671-0.226,1.326-0.464,1.965-0.713
		c1.917-0.747,3.689-1.594,5.3-2.525l10.228-5.905l38.558-22.261l1.651-0.953l9.303-5.371L310.497,116.312z"/>
	<linearGradient id="SVGID_7_" gradientUnits="userSpaceOnUse" x1="140.6809" y1="-0.0536" x2="264.1093" y2="206.9875">
		<stop  offset="0" style="stop-color:#FFFFFF;stop-opacity:0.2"/>
		<stop  offset="1" style="stop-color:#FFFFFF;stop-opacity:0"/>
	</linearGradient>
	<path class="st10" d="M310.497,116.312l-75.736-43.726l-56.37-32.545l-3.944-2.252c-0.001,0.002-0.001,0.004-0.002,0.005
		c-4.205-2.328-9.448-4.099-15.458-5.039c-12.406-1.94-25.011,0.137-33.688,4.853c-0.005-0.003-0.01-0.006-0.015-0.009l-3.907,2.256
		l-21.966,12.68l-8.87,5.121c0.004,0.005,0.007,0.01,0.011,0.014c-4.631,2.521-8.144,5.793-9.897,9.614
		c-1.007,2.193-1.353,4.399-1.12,6.55c0.526,4.853,4.026,9.422,9.71,12.914c-0.003,0.004-0.006,0.009-0.009,0.014l15.679,9.052
		l16.46,9.503l28.346,16.366l9.303,5.371l1.651,0.953l38.558,22.261l10.228,5.905c1.611,0.931,3.383,1.778,5.3,2.525
		c3.195,1.245,6.792,2.213,10.716,2.826c2.377,0.372,4.762,0.595,7.125,0.682c0.099,0.003,0.199,0.004,0.298,0.006
		c0.622,0.02,1.242,0.03,1.861,0.031c0.618-0.001,1.239-0.011,1.861-0.031c0.099-0.003,0.199-0.003,0.299-0.006
		c2.363-0.087,4.748-0.31,7.125-0.682c3.139-0.491,6.069-1.208,8.751-2.113c0.671-0.226,1.326-0.464,1.965-0.713
		c1.917-0.747,3.689-1.594,5.3-2.525l10.228-5.905l38.558-22.261l1.651-0.953l9.303-5.371L310.497,116.312z"/>
</g>
<circle class="st7" cx="866.601" cy="185.714" r="14.133"/>
</svg>
