<?xml version="1.0" encoding="utf-8"?>
<!-- Generator: Adobe Illustrator 23.0.4, SVG Export Plug-In . SVG Version: 6.00 Build 0)  -->
<svg version="1.1" id="Vrstva_1" xmlns="http://www.w3.org/2000/svg" xmlns:xlink="http://www.w3.org/1999/xlink" x="0px" y="0px"
	 viewBox="0 0 337.3 337.3" style="enable-background:new 0 0 337.3 337.3;" xml:space="preserve">
<style type="text/css">
	.st0{fill:#B5BABD;}
	.st1{fill:#AEB2B5;}
	.st2{fill:#C4C9CC;}
	.st3{fill:#D3D8DB;}
	.st4{fill:#69C350;}
</style>
<rect y="0" class="st0" width="337.3" height="337.3"/>
<polygon class="st1" points="125.8,0 0,0 42.2,43.8 "/>
<g>
	<path class="st2" d="M327.3,178.3c1.5-5.3,1.5-13.9,0-19.3l-3.8-13.5L295.1,43.8L211.5,0l-85.7,0L42.2,43.8L13,147.9L9.9,159
		c-1.5,5.3-1.5,13.9,0,19.3l2.2,7.7l30.1,107.5l83.6,43.8h85.7l83.6-43.8l27.2-96.9L327.3,178.3z"/>
</g>
<path class="st3" d="M211.5,0l105.2,160.3c3,4.6,3,12.1,0,16.7L211.5,337.3h-85.7L20.6,177c-3-4.6-3-12.1,0-16.7L125.8,0L211.5,0z"
	/>
<polygon class="st1" points="42.2,293.5 0,337.3 125.8,337.3 "/>
<polygon class="st1" points="211.5,0 337.3,0 295.1,43.8 "/>
<polygon class="st1" points="295.1,293.5 337.3,337.3 211.5,337.3 "/>
<path class="st4" d="M119.5,285.6h11.7v-3.7h-9v-18.6h-4v18.6v1.7L119.5,285.6z M145.7,278.5c0,1.5-0.5,4-4,4h-1.2c-1.5,0-4-0.5-4-4
	v-8c0-1.5,0.5-4,4-4h1.2c1.5,0,4,0.5,4,4V278.5z M148.3,282.6c1-1.7,1.1-3.5,1.1-4.1v-8.1c0-3.8-1.9-5.6-3.5-6.5
	c-1.7-1-3.5-1.1-4.1-1.1h-1.3c-3.8,0-5.6,1.9-6.5,3.5c-1,1.7-1.1,3.5-1.1,4.1v8.1c0,3.8,1.9,5.6,3.5,6.5c1.7,1,3.5,1.1,4.1,1.1h1.2
	h0C145.5,286,147.4,284.2,148.3,282.6 M161.6,274.5l-7.3-11.2h-4.5l7.3,11.2l-7.3,11.2h4.5L161.6,274.5z M162.6,273l6.3-9.6h-4.5
	l-4,6.2L162.6,273z M164.4,285.7h4.5l-6.3-9.6l-2.2,3.4L164.4,285.7z M182.3,278.5c0,1.5-0.5,4-4,4h-1.2c-1.5,0-4-0.5-4-4v-8
	c0-1.5,0.5-4,4-4h1.2c1.5,0,4,0.5,4,4V278.5z M184.9,282.6c1-1.7,1.1-3.5,1.1-4.1v-8.1c0-3.8-1.9-5.6-3.5-6.5
	c-1.7-1-3.5-1.1-4.1-1.1h-1.3c-3.8,0-5.6,1.9-6.5,3.5c-1,1.7-1.1,3.5-1.1,4.1l0,8.1c0,3.8,1.9,5.6,3.5,6.5c1.7,1,3.5,1.1,4.1,1.1
	h1.2h0C182.1,286,184,284.2,184.9,282.6 M205.8,285.6h0.5v-22.3h-3.6v16.1l-8.2-16.1h-1.2h-2.8h-0.9v22.3h3.6v-16.8l8.6,16.8h0.8
	H205.8z M214.2,281.9v-6.2h5.8V272h-5.8v-2.9l-1.3-2h2.8h7.6v-3.7h-13v0v3.7v14.8v1.7l1.3,2.1h11.6v-3.7H214.2z"/>
</svg>
