<?xml version="1.0" encoding="utf-8"?>
<!-- Generator: Adobe Illustrator 23.0.4, SVG Export Plug-In . SVG Version: 6.00 Build 0)  -->
<svg version="1.1" id="Vrstva_1" xmlns="http://www.w3.org/2000/svg" xmlns:xlink="http://www.w3.org/1999/xlink" x="0px" y="0px"
	 viewBox="0 0 961.4 300.9" style="enable-background:new 0 0 961.4 300.9;" xml:space="preserve">
<style type="text/css">
	.st0{fill:#F6F6F6;}
	.st1{fill:#E2EDE1;}
</style>
<rect class="st0" width="961.4" height="300.9"/>
<g>
	<path class="st1" d="M361.7,177.2l-81.6-1.5L199.6,32.5c-3.8-6.7-12.3-15.2-19-19L156.6,0h-2.8l26.1,14.7
		c6.5,3.7,14.8,12,18.5,18.5l80.5,143.2l-37.8,121.1l-53-255.7c-1.6-7.7-9.1-15.2-16.8-16.8L50.8,0H44l127,26.3
		c7.2,1.5,14.2,8.5,15.7,15.7l53.5,258l-0.9,0.9h1.9l122.6-122.6c0.1-0.1,0.1-0.1,0.1-0.2c0,0,0,0,0-0.1c0-0.1,0-0.1,0-0.2
		c0,0,0,0,0,0c0,0,0,0,0,0c0-0.1,0-0.2,0-0.2c0,0,0,0,0,0c0,0,0,0,0,0c0-0.1-0.1-0.1-0.1-0.2c0,0,0,0,0,0L186.4,0h-1.9L361.7,177.2z
		 M253.3,287l-10.9,10.9L280.1,177l81.6,1.5L253.3,287z"/>
	<path class="st1" d="M945.8,222.2c-3.8-6.7-12.3-15.2-19-19l-143.1-80.5l-1.5-81.6l179.3,179.3v-1.9L781.9,38.9c0,0,0,0,0,0
		c-0.1-0.1-0.1-0.1-0.2-0.1c-0.2-0.1-0.3-0.1-0.5,0c0,0,0,0,0,0c-0.1,0-0.2,0.1-0.2,0.1L658.5,161.3l-83.4,83.4l-56.3,56.3h1.9
		l53.3-53.3l-16.6,53.3h1.4l16.5-53l11,53h1.4l-11.5-55.6l82.9-82.9l258,53.5c7.2,1.5,14.2,8.5,15.7,15.7l14.4,69.2h1.4l-14.4-69.5
		c-1.6-7.7-9.1-15.2-16.8-16.8l-255.7-53l47.8-14.9l73.3-22.8l143.2,80.5c6.5,3.7,14.8,12,18.5,18.5l16.9,30V250L945.8,222.2z
		 M661.5,160.3L780.7,41l1.5,81.6L661.5,160.3z"/>
</g>
</svg>
