<?xml version="1.0" encoding="utf-8"?>
<!-- Generator: Adobe Illustrator 23.0.6, SVG Export Plug-In . SVG Version: 6.00 Build 0)  -->
<svg version="1.1" id="Vrstva_1" xmlns="http://www.w3.org/2000/svg" xmlns:xlink="http://www.w3.org/1999/xlink" x="0px" y="0px"
	 viewBox="0 0 448.7 141.7" style="enable-background:new 0 0 448.7 141.7;" xml:space="preserve">
<style type="text/css">
	.st0{fill:#57C501;}
	.st1{fill:#FFFFFF;}
</style>
<g>
	<g>
		<path class="st0" d="M135.8,32.5c-0.8-1.8-2.4-3.4-4.6-4.6c0,0-0.1,0-0.1-0.1l-14.3-8.2c-0.1,0-0.1-0.1-0.2-0.1
			c-4-2.1-9.5-2.9-14.8-2.1c-2.5,0.4-4.9,1.2-6.8,2.2c0,0-0.1,0-0.1,0.1l-1.6,0.9L71,33.5L48.7,20.6l-1.6-0.9c0,0-0.1,0-0.1-0.1
			c-1.9-1.1-4.3-1.8-6.8-2.2c-5.2-0.8-10.7,0-14.7,2.1c-0.1,0-0.1,0.1-0.2,0.1L11,27.8c0,0-0.1,0-0.1,0.1c-2.2,1.2-3.8,2.8-4.6,4.6
			c-0.5,1-0.7,2.1-0.6,3.2c0,0.1,0,0.1,0,0.2V89v0.1c0,2.7,1.7,5.3,4.7,7.2c0.1,0,0.1,0.1,0.2,0.1L60,124.9c2,1.1,4.5,2,7.1,2.4
			c0.2,0,0.4,0.1,0.6,0.1c0.1,0,0.2,0,0.2,0c0.1,0,0.2,0,0.3,0c0.2,0,0.5,0,0.7,0.1c0.1,0,0.2,0,0.3,0c0.3,0,0.5,0,0.8,0
			c0.1,0,0.1,0,0.2,0c0.3,0,0.7,0,1,0c0,0,0,0,0.1,0l0,0c4.1,0,8-1,11-2.7l24.6-14.2l0,0l24.8-14.3c0.1,0,0.1-0.1,0.2-0.1
			c3-1.9,4.7-4.5,4.7-7.2L135.8,32.5z M95,23.4l1.5-0.9c0,0,0,0,0.1,0c1.6-0.9,3.6-1.5,5.8-1.9c4.5-0.7,9.4,0,12.8,1.8h0.1l14,8.1
			c0.1,0,0.1,0.1,0.2,0.1c1.7,0.9,2.8,2,3.4,3.2l0,0c0.3,0.6,0.4,1.2,0.3,1.8l0,0c-0.1,0.9-0.6,1.8-1.4,2.7c-0.5,0.5-1.1,1-1.8,1.4
			c0,0-0.1,0-0.1,0.1L106,53.6L74.3,35.4L95,23.4z M9.2,33.9c0.5-1.2,1.7-2.3,3.4-3.2c0.1,0,0.1-0.1,0.2-0.1l14-8.1h0.1
			c3.4-1.8,8.3-2.5,12.8-1.8c2.2,0.3,4.2,1,5.8,1.9c0,0,0,0,0.1,0l1.5,0.9l54.3,31.3l0,0l1.4,0.8l-1.4,0.8l0,0l-20.7,12l0,0l0,0
			c-0.3,0.1-0.5,0.3-0.8,0.4c-0.1,0-0.2,0.1-0.2,0.1c-0.1,0-0.2,0.1-0.3,0.1c-0.2,0.1-0.3,0.1-0.5,0.2c-0.1,0-0.1,0.1-0.2,0.1
			s-0.1,0-0.2,0.1c-0.2,0.1-0.4,0.1-0.6,0.2c-0.1,0-0.2,0-0.2,0.1c-0.2,0.1-0.3,0.1-0.5,0.2l0,0c-0.1,0-0.2,0-0.3,0.1
			c-0.2,0-0.3,0.1-0.5,0.1s-0.3,0.1-0.5,0.1c-0.1,0-0.2,0.1-0.3,0.1c-0.3,0.1-0.6,0.1-0.9,0.2c-0.4,0.1-0.9,0.1-1.3,0.2
			c-0.1,0-0.1,0-0.2,0c-0.4,0-0.9,0.1-1.3,0.1h-0.1h-0.1c-0.2,0-0.3,0-0.5,0c-0.1,0-0.2,0-0.3,0c-0.1,0-0.2,0-0.3,0
			c-0.1,0-0.1,0-0.2,0l0,0l0,0c-0.9,0-1.8-0.1-2.7-0.3c-0.3-0.1-0.7-0.1-1-0.2c-0.1,0-0.2,0-0.3-0.1c-0.2-0.1-0.5-0.1-0.7-0.2
			c-0.1,0-0.2-0.1-0.3-0.1c-0.2-0.1-0.4-0.1-0.7-0.2c-0.1,0-0.2-0.1-0.3-0.1c-0.3-0.1-0.6-0.2-0.9-0.3c0,0-0.1,0-0.1-0.1
			c-0.3-0.1-0.5-0.2-0.8-0.3h-0.1c-0.1,0-0.1-0.1-0.2-0.1c-0.3-0.1-0.6-0.3-0.8-0.4L57.3,66l0,0l-3.1-1.8l-42-24.3
			c0,0-0.1,0-0.1-0.1c-1.9-1.2-3.1-2.6-3.2-4.1l0,0C8.8,35.1,9,34.5,9.2,33.9z M36.7,80.9c-0.5-0.2-1-0.2-1.4,0.1
			c-0.5,0.3-0.8,0.8-0.8,1.4v24L12.2,93.6c0,0-0.1,0-0.1-0.1c-2.1-1.3-3.2-2.9-3.2-4.4V89c0-0.1,0-0.2,0-0.3V41.5l0,0
			c0.2,0.2,0.4,0.3,0.6,0.4L9.6,42c0.2,0.2,0.4,0.3,0.7,0.4c0.1,0,0.1,0.1,0.2,0.1l27,15.6l1.6,0.9l0,0l20.7,12l0,0h0.1H60
			c0.3,0.1,0.5,0.3,0.8,0.4c0.1,0.1,0.3,0.1,0.4,0.2c0.2,0.1,0.4,0.2,0.6,0.3c0.2,0.1,0.4,0.2,0.7,0.3c2.3,0.9,4.9,1.4,7.6,1.5h0.1
			c0.3,0,0.5,0,0.8,0l0,0l0,0c0.1,0,0.3,0,0.4,0h0.1h0.1h0.1l0,0l0,0h0.1l0,0l0,0l0,0l0,0l0,0l0,0c1.1,0,2.1-0.1,3.1-0.3l0,0l0,0H75
			c0.6-0.1,1.1-0.2,1.7-0.3c0.1,0,0.1,0,0.2,0l0,0c0.3-0.1,0.5-0.1,0.8-0.2c0.1,0,0.1,0,0.2,0s0.1,0,0.2-0.1
			c0.3-0.1,0.5-0.2,0.8-0.2l0,0l0,0c0.4-0.1,0.8-0.3,1.2-0.5l0,0c0.1,0,0.2-0.1,0.3-0.1c0.1-0.1,0.2-0.1,0.4-0.2l0,0
			c0.1-0.1,0.2-0.1,0.3-0.2c0.1,0,0.2-0.1,0.3-0.1c0.1,0,0.1-0.1,0.2-0.1c0.1-0.1,0.3-0.1,0.4-0.2h0.1l22.1-12.8v23.1l-22.5,13l0,0
			l-1.3,0.8c-3.4,1.9-8.4,2.7-13.1,2c-1.9-0.3-3.7-0.8-5.2-1.6c-0.3-0.1-0.6-0.3-0.8-0.4L36.9,81C36.9,81,36.8,80.9,36.7,80.9z
			 M133.2,88.8c0,0.1,0,0.2,0,0.3v0.1c0,1.6-1.2,3.2-3.2,4.4c0,0-0.1,0-0.1,0.1L105.2,108l0,0l-24.6,14.2c-2.5,1.4-5.9,2.2-9.4,2.2
			c-0.3,0-0.6,0-0.9,0l0,0c-0.3,0-0.6,0-0.8,0c-0.1,0-0.1,0-0.2,0c-0.2,0-0.5,0-0.7-0.1c-0.1,0-0.1,0-0.2,0c-0.3,0-0.5-0.1-0.8-0.1
			c-1.4-0.2-2.8-0.6-4-1c-0.7-0.3-1.4-0.6-2-1l-23.7-13.7V85.3L59.8,98c0.5,0.3,1,0.6,1.6,0.8c1.7,0.7,3.6,1.3,5.6,1.6
			c5.5,0.9,11.2,0,15.2-2.4l1.3-0.8l0,0l23.3-13.4c0.5-0.3,0.8-0.8,0.8-1.4V56.5l24-13.9c0.1,0,0.1-0.1,0.2-0.1l0,0
			c0.2-0.1,0.4-0.3,0.6-0.4c0.1,0,0.1-0.1,0.2-0.1c0.2-0.1,0.4-0.3,0.5-0.4c0,0,0,0,0.1,0L133.2,88.8L133.2,88.8z"/>
	</g>
</g>
<g>
	<path class="st1" d="M170.4,77.3V57.5h6.4c1.8,0,3.3,0.4,4.7,1.2s2.5,1.9,3.3,3.4s1.2,3.1,1.2,4.9v0.9c0,1.8-0.4,3.4-1.2,4.9
		c-0.8,1.4-1.9,2.6-3.2,3.4s-3,1.2-4.7,1.2L170.4,77.3L170.4,77.3z M175.2,61.2v12.5h1.7c1.4,0,2.4-0.5,3.2-1.5
		c0.7-1,1.1-2.4,1.1-4.4V67c0-1.9-0.4-3.4-1.1-4.3c-0.7-1-1.8-1.5-3.2-1.5H175.2z"/>
	<path class="st1" d="M197,75.8c-1,1.2-2.3,1.9-3.9,1.9c-1.6,0-2.8-0.5-3.7-1.4c-0.8-0.9-1.2-2.3-1.2-4.1v-9.6h4.6v9.6
		c0,1.3,0.6,1.9,1.8,1.9c1.1,0,1.8-0.4,2.2-1.1V62.6h4.6v14.8h-4.3L197,75.8z M191.8,58c0-0.8,0.3-1.4,0.9-2
		c0.6-0.5,1.3-0.8,2.2-0.8c0.8,0,1.6,0.3,2.2,0.8c0.6,0.5,0.9,1.2,0.9,2s-0.3,1.4-0.9,1.9c-0.6,0.5-1.3,0.8-2.2,0.8
		s-1.6-0.3-2.2-0.8S191.8,58.8,191.8,58z M194.9,59.4c0.4,0,0.8-0.1,1-0.4c0.2-0.3,0.4-0.6,0.4-1s-0.1-0.7-0.4-1s-0.6-0.4-1-0.4
		s-0.8,0.1-1,0.4s-0.4,0.6-0.4,1s0.1,0.7,0.4,1C194.1,59.3,194.4,59.4,194.9,59.4z"/>
	<path class="st1" d="M208.3,62.6l0.1,1.7c1-1.3,2.5-2,4.2-2c1.9,0,3.1,0.7,3.8,2.2c1-1.5,2.4-2.2,4.3-2.2c3,0,4.5,1.8,4.6,5.4v9.6
		h-4.6V68c0-0.8-0.1-1.3-0.4-1.7c-0.3-0.3-0.7-0.5-1.4-0.5c-0.9,0-1.6,0.4-2,1.2v0.2v10.1h-4.5V68c0-0.8-0.1-1.3-0.4-1.7
		c-0.2-0.3-0.7-0.5-1.4-0.5c-0.9,0-1.6,0.4-2,1.2v10.3H204V62.6H208.3z"/>
	<path class="st1" d="M229.7,82.7l-2.3-1.1l0.5-0.9c0.6-1.2,1-2.3,1-3.4v-3.4h3.7v3c0,1-0.3,2.1-0.8,3.2
		C231.2,81.1,230.5,82,229.7,82.7z"/>
	<path class="st1" d="M248.5,71.9l-1.3,1.3v4.2h-4.6v-21h4.6v11.1l0.5-0.6l3.5-4.3h5.5l-5.2,6.1l5.5,8.7h-5.3L248.5,71.9z"/>
	<path class="st1" d="M263.2,58.9v3.7h2.4v3.2h-2.4v6.8c0,0.6,0.1,0.9,0.3,1.2c0.2,0.2,0.6,0.3,1.2,0.3c0.5,0,0.8,0,1.1-0.1v3.3
		c-0.8,0.3-1.7,0.4-2.6,0.4c-1.6,0-2.8-0.4-3.5-1.1c-0.8-0.7-1.1-1.9-1.1-3.4v-7.3h-1.9v-3.2h1.9V59h4.6V58.9z"/>
	<path class="st1" d="M274.5,77.6c-2.3,0-4.1-0.7-5.5-2s-2.1-3.1-2.1-5.3v-0.4c0-1.5,0.3-2.8,0.8-4c0.6-1.2,1.4-2,2.4-2.7
		c1.1-0.6,2.3-0.9,3.8-0.9c2.1,0,3.7,0.6,4.9,1.9c1.2,1.3,1.8,3.1,1.8,5.4v1.8h-9.1c0.2,0.8,0.5,1.5,1.1,2s1.3,0.7,2.2,0.7
		c1.5,0,2.6-0.5,3.4-1.5l2.2,2.4c-0.6,0.8-1.4,1.4-2.4,1.9C276.9,77.4,275.8,77.6,274.5,77.6z M274,65.9c-1.3,0-2.1,0.9-2.4,2.7h4.6
		v-0.4c0-0.7-0.2-1.3-0.6-1.7C275.3,66.1,274.8,65.9,274,65.9z"/>
	<path class="st1" d="M291.5,66.8l-1.5-0.1c-1.4,0-2.4,0.5-2.8,1.4v9.3h-4.6V62.6h4.3l0.1,1.9c0.8-1.4,1.9-2.2,3.2-2.2
		c0.5,0,0.9,0.1,1.3,0.2V66.8z"/>
	<path class="st1" d="M299.1,70.9l2.5-8.3h4.9l-6,17.2l-0.3,0.6c-0.9,1.9-2.4,2.9-4.5,2.9c-0.6,0-1.2-0.1-1.9-0.3v-3.3h0.6
		c0.6,0,1.1-0.1,1.5-0.3s0.6-0.5,0.8-1l0.4-1L292,62.5h4.9L299.1,70.9z M299.7,56.4h4.9l-3.8,4.3H297L299.7,56.4z"/>
	<path class="st1" d="M319,62.6l0.1,1.7c1-1.3,2.5-2,4.2-2c1.9,0,3.1,0.7,3.8,2.2c1-1.5,2.4-2.2,4.3-2.2c3,0,4.5,1.8,4.6,5.4v9.6
		h-4.6V68c0-0.8-0.1-1.3-0.4-1.7c-0.3-0.3-0.7-0.5-1.4-0.5c-0.9,0-1.6,0.4-2,1.2v0.2v10.1H323V68c0-0.8-0.1-1.3-0.4-1.7
		c-0.2-0.3-0.7-0.5-1.4-0.5c-0.9,0-1.6,0.4-2,1.2v10.3h-4.6V62.6H319z"/>
	<path class="st1" d="M347,77.3c-0.2-0.3-0.3-0.7-0.4-1.3c-0.8,1.1-2,1.6-3.5,1.6c-1.4,0-2.6-0.4-3.5-1.3c-1-0.8-1.5-1.9-1.5-3.2
		c0-1.6,0.6-2.8,1.8-3.6s2.9-1.2,5.2-1.2h1.4v-0.8c0-1.4-0.6-2-1.8-2c-1.1,0-1.6,0.5-1.6,1.6h-4.7c0-1.4,0.6-2.6,1.8-3.5
		c1.2-0.9,2.8-1.3,4.6-1.3s3.4,0.5,4.5,1.4c1.1,0.9,1.7,2.2,1.7,3.8V74c0,1.4,0.2,2.4,0.6,3.1v0.2C351.6,77.3,347,77.3,347,77.3z
		 M345.3,56.4h4.9l-3.8,4.3h-3.8L345.3,56.4z M344.1,74.3c0.6,0,1-0.1,1.4-0.4c0.4-0.2,0.6-0.5,0.8-0.8v-2.4H345
		c-1.6,0-2.4,0.7-2.4,2.2c0,0.4,0.1,0.8,0.4,1C343.3,74.2,343.7,74.3,344.1,74.3z"/>
	<path class="st1" d="M368.2,73.2c0-0.4-0.2-0.7-0.6-0.9s-1.2-0.5-2.3-0.7s-2.1-0.6-2.8-1c-0.7-0.4-1.3-0.9-1.7-1.5
		c-0.4-0.6-0.6-1.3-0.6-2c0-1.4,0.6-2.5,1.7-3.3c1.1-0.9,2.6-1.3,4.4-1.3c1.9,0,3.5,0.4,4.7,1.3c1.2,0.9,1.8,2,1.8,3.5h-4.6
		c0-1.2-0.6-1.8-1.9-1.8c-0.5,0-0.9,0.1-1.2,0.4c-0.3,0.3-0.5,0.6-0.5,1s0.2,0.7,0.6,1s1,0.5,1.9,0.6c0.9,0.2,1.6,0.4,2.3,0.6
		c2.2,0.8,3.3,2.1,3.3,4.1c0,1.3-0.6,2.4-1.8,3.3c-1.2,0.8-2.7,1.3-4.6,1.3c-1.3,0-2.4-0.2-3.4-0.7s-1.8-1.1-2.3-1.9
		c-0.6-0.8-0.8-1.6-0.8-2.5h4.3c0,0.7,0.2,1.2,0.7,1.5s1,0.5,1.7,0.5c0.6,0,1.1-0.1,1.4-0.4C368,73.9,368.2,73.6,368.2,73.2z"/>
	<path class="st1" d="M383.7,66.8l-1.5-0.1c-1.4,0-2.4,0.5-2.8,1.4v9.3h-4.6V62.6h4.3l0.1,1.9c0.8-1.4,1.9-2.2,3.2-2.2
		c0.5,0,0.9,0.1,1.3,0.2V66.8z"/>
	<path class="st1" d="M384.8,69.9c0-2.3,0.5-4.2,1.5-5.5c1-1.3,2.4-2,4.2-2c1.3,0,2.4,0.5,3.3,1.6v-7.5h4.6v20.9h-4.1l-0.2-1.6
		c-0.9,1.2-2.1,1.9-3.6,1.9c-1.8,0-3.1-0.7-4.2-2C385.3,74.3,384.8,72.3,384.8,69.9z M389.4,70.1c0,2.6,0.8,3.9,2.3,3.9
		c1,0,1.7-0.4,2.2-1.3v-5.6c-0.4-0.9-1.1-1.3-2.2-1.3c-1.4,0-2.2,1.1-2.3,3.4V70.1z"/>
	<path class="st1" d="M407.3,74.1c0.6,0,1.1-0.2,1.5-0.5s0.5-0.8,0.5-1.5h4.3c0,1.6-0.6,2.9-1.7,4c-1.2,1-2.7,1.6-4.5,1.6
		c-2.1,0-3.8-0.7-5.1-2c-1.2-1.3-1.9-3.2-1.9-5.6v-0.2c0-1.5,0.3-2.8,0.8-3.9s1.3-2,2.4-2.6s2.3-0.9,3.7-0.9c1.9,0,3.4,0.5,4.6,1.6
		c1.1,1.1,1.7,2.5,1.7,4.3h-4.3c0-0.8-0.2-1.4-0.6-1.8s-0.9-0.6-1.5-0.6c-1.2,0-1.9,0.8-2.1,2.3c-0.1,0.5-0.1,1.1-0.1,2
		c0,1.5,0.2,2.5,0.5,3.1C406,73.8,406.5,74.1,407.3,74.1z"/>
	<path class="st1" d="M422.7,77.6c-2.3,0-4.1-0.7-5.5-2s-2.1-3.1-2.1-5.3v-0.4c0-1.5,0.3-2.8,0.8-4c0.6-1.2,1.4-2,2.4-2.7
		c1.1-0.6,2.3-0.9,3.8-0.9c2.1,0,3.7,0.6,4.9,1.9c1.2,1.3,1.8,3.1,1.8,5.4v1.8h-9.1c0.2,0.8,0.5,1.5,1.1,2s1.3,0.7,2.2,0.7
		c1.5,0,2.6-0.5,3.4-1.5l2.1,2.5c-0.6,0.8-1.4,1.4-2.4,1.9C425,77.4,423.9,77.6,422.7,77.6z M422.2,65.9c-1.3,0-2.1,0.9-2.4,2.7h4.6
		v-0.4c0-0.7-0.2-1.3-0.6-1.7C423.5,66.1,422.9,65.9,422.2,65.9z"/>
	<path class="st1" d="M433.6,72.9c0.7,0,1.3,0.2,1.8,0.6s0.7,1,0.7,1.7s-0.2,1.2-0.7,1.7c-0.5,0.4-1.1,0.6-1.8,0.6
		c-0.7,0-1.3-0.2-1.8-0.7s-0.7-1-0.7-1.7s0.2-1.2,0.7-1.7C432.3,73.1,432.9,72.9,433.6,72.9z"/>
</g>
</svg>
