<?xml version="1.0" encoding="utf-8"?>
<!-- Generator: Adobe Illustrator 23.0.6, SVG Export Plug-In . SVG Version: 6.00 Build 0)  -->
<svg version="1.1" id="Vrstva_1" xmlns="http://www.w3.org/2000/svg" xmlns:xlink="http://www.w3.org/1999/xlink" x="0px" y="0px"
	 viewBox="0 0 438.137 141.732" style="enable-background:new 0 0 438.137 141.732;" xml:space="preserve">
<style type="text/css">
	.st0{fill:#FFFFFF;}
</style>
<g>
	<g>
		<path class="st0" d="M135.846,32.511c-0.826-1.8-2.426-3.397-4.63-4.628c-0.033-0.022-0.067-0.044-0.103-0.064l-14.272-8.24
			c-0.056-0.032-0.113-0.061-0.172-0.086c-4.015-2.136-9.516-2.922-14.75-2.104c-2.533,0.396-4.887,1.161-6.814,2.213
			c-0.033,0.016-0.066,0.034-0.099,0.052l-1.627,0.929L71.045,33.478L48.703,20.579l-1.62-0.925
			c-0.032-0.018-0.065-0.036-0.098-0.052c-1.926-1.052-4.28-1.817-6.814-2.213c-5.233-0.818-10.734-0.031-14.749,2.104
			c-0.058,0.025-0.116,0.054-0.172,0.086l-14.273,8.24c-0.035,0.02-0.069,0.041-0.102,0.064c-2.206,1.231-3.806,2.829-4.632,4.629
			c-0.474,1.033-0.683,2.1-0.628,3.178c-0.007,0.06-0.012,0.121-0.012,0.183v53.095c0,0.044,0.002,0.087,0.005,0.13
			c-0.022,2.703,1.673,5.317,4.663,7.199c0.054,0.041,0.11,0.078,0.169,0.112l49.388,28.514c1.988,1.149,4.46,1.979,7.149,2.4
			c0.211,0.033,0.424,0.064,0.637,0.091c0.083,0.011,0.166,0.018,0.249,0.028c0.096,0.012,0.192,0.022,0.288,0.033
			c0.233,0.026,0.466,0.048,0.7,0.068c0.091,0.008,0.183,0.016,0.274,0.022c0.257,0.019,0.515,0.033,0.773,0.045
			c0.066,0.003,0.131,0.007,0.197,0.01c0.329,0.012,0.659,0.02,0.989,0.02c0.022,0,0.044,0,0.067,0c0.004,0,0.008-0.001,0.012-0.001
			c4.13-0.013,8.043-0.961,11.022-2.673l24.616-14.213c0.014-0.008,0.028-0.017,0.042-0.025l24.804-14.32
			c0.059-0.034,0.115-0.071,0.168-0.112c2.993-1.884,4.689-4.501,4.664-7.2L135.846,32.511z M95.017,23.432l1.547-0.883
			c0.018-0.009,0.037-0.019,0.054-0.029c1.609-0.89,3.618-1.542,5.809-1.884c4.533-0.709,9.438-0.014,12.801,1.814
			c0.03,0.016,0.06,0.031,0.09,0.045l14.017,8.093c0.053,0.037,0.108,0.072,0.165,0.103c1.651,0.899,2.812,2.003,3.358,3.192l0,0
			c0.277,0.603,0.385,1.217,0.321,1.822c0,0.002-0.001,0.004-0.001,0.006c-0.099,0.909-0.581,1.817-1.397,2.656
			c-0.49,0.504-1.099,0.984-1.817,1.425c-0.03,0.018-0.059,0.038-0.088,0.058L105.98,53.647L74.332,35.375L95.017,23.432z
			 M9.231,33.883c0.545-1.189,1.707-2.293,3.358-3.192c0.057-0.031,0.112-0.065,0.164-0.102l14.019-8.093
			c0.03-0.014,0.06-0.029,0.09-0.045c3.363-1.828,8.268-2.523,12.801-1.814c2.193,0.343,4.201,0.995,5.808,1.884
			c0.018,0.01,0.036,0.02,0.055,0.029l1.54,0.879l54.27,31.333l0,0l1.356,0.783l-1.357,0.784c-0.001,0.001-0.002,0.001-0.003,0.002
			L80.618,68.29c-0.001,0-0.002,0.001-0.003,0.001c-0.006,0.004-0.013,0.007-0.019,0.01c-0.257,0.148-0.528,0.287-0.806,0.423
			c-0.082,0.04-0.165,0.079-0.249,0.118c-0.09,0.042-0.185,0.079-0.277,0.119c-0.154,0.067-0.305,0.136-0.463,0.2
			c-0.064,0.026-0.126,0.054-0.191,0.079c-0.05,0.019-0.103,0.037-0.153,0.056c-0.192,0.072-0.386,0.143-0.585,0.209
			c-0.078,0.026-0.159,0.049-0.239,0.074c-0.173,0.055-0.345,0.11-0.522,0.161c-0.006,0.002-0.013,0.004-0.019,0.006
			c-0.092,0.026-0.187,0.049-0.28,0.074c-0.172,0.046-0.344,0.094-0.52,0.136c-0.16,0.038-0.324,0.072-0.487,0.107
			c-0.114,0.024-0.226,0.052-0.341,0.074c-0.283,0.056-0.569,0.107-0.859,0.152c-0.426,0.067-0.859,0.12-1.297,0.163
			c-0.054,0.005-0.109,0.009-0.163,0.014c-0.427,0.039-0.859,0.069-1.298,0.085l-0.09,0.002c-0.034,0.001-0.066,0.002-0.099,0.003
			c-0.168,0.005-0.335,0.007-0.502,0.008c-0.097,0-0.195,0-0.294-0.001c-0.117-0.001-0.233-0.003-0.348-0.006
			c-0.067-0.002-0.132-0.003-0.201-0.005c-0.002,0-0.045-0.001-0.046-0.001l-0.048-0.001c-0.921-0.034-1.841-0.122-2.734-0.262
			c-0.335-0.052-0.664-0.113-0.988-0.179c-0.092-0.019-0.183-0.04-0.274-0.06c-0.229-0.05-0.455-0.103-0.678-0.159
			c-0.108-0.027-0.215-0.055-0.322-0.084c-0.22-0.06-0.436-0.124-0.65-0.19c-0.087-0.027-0.175-0.052-0.261-0.08
			c-0.291-0.095-0.577-0.196-0.856-0.304c-0.043-0.016-0.083-0.035-0.125-0.052c-0.258-0.103-0.508-0.212-0.753-0.325
			c-0.034-0.016-0.068-0.03-0.102-0.046c-0.055-0.026-0.11-0.051-0.164-0.077c-0.29-0.141-0.573-0.286-0.839-0.44l-4.201-2.426l0,0
			l-3.112-1.797L12.216,39.852c-0.029-0.02-0.058-0.04-0.089-0.059c-1.916-1.177-3.058-2.626-3.215-4.082
			c0-0.002-0.001-0.005-0.001-0.007C8.846,35.099,8.954,34.486,9.231,33.883z M36.736,80.918c-0.468-0.193-1.003-0.161-1.448,0.096
			c-0.508,0.293-0.822,0.836-0.822,1.423v24.047L12.214,93.637c-0.028-0.02-0.058-0.039-0.087-0.058
			c-2.059-1.265-3.234-2.88-3.232-4.443c0.003-0.039,0.006-0.078,0.007-0.117c0.003-0.084-0.001-0.168-0.012-0.251V41.516
			c0.007,0.006,0.015,0.012,0.023,0.018c0.183,0.15,0.375,0.296,0.572,0.44c0.044,0.032,0.089,0.064,0.133,0.096
			c0.211,0.15,0.426,0.297,0.652,0.439c0.054,0.041,0.111,0.079,0.17,0.113l27.035,15.609l1.634,0.943l0,0L59.83,71.137
			c0.002,0.001,0.005,0.003,0.007,0.004l0.071,0.041c0.027,0.016,0.057,0.029,0.084,0.044c0.266,0.149,0.54,0.294,0.822,0.432
			c0.127,0.063,0.256,0.123,0.386,0.183c0.212,0.098,0.429,0.192,0.649,0.284c0.214,0.089,0.432,0.174,0.653,0.257
			c2.273,0.851,4.88,1.361,7.591,1.453l0.141,0.004c0.271,0.008,0.548,0.014,0.808,0.013c0.008,0,0.016,0,0.025,0
			c0.001,0,0.001,0,0.002,0c0.13,0,0.259-0.001,0.388-0.004c0.042-0.001,0.085-0.002,0.128-0.003
			c0.044-0.001,0.089-0.001,0.133-0.002c0.036-0.001,0.074-0.002,0.111-0.003c0.009,0,0.019,0,0.028,0s0.035-0.001,0.044-0.001
			l0.078-0.002h0.003h0.001h0.007c0.001,0,0.001,0,0.002,0s0.001,0,0.002,0c0.003,0,0.007-0.001,0.01-0.001
			c1.053-0.036,2.087-0.14,3.095-0.296c0.002,0,0.004,0,0.006-0.001c0.003,0,0.006-0.001,0.009-0.001
			c0.026-0.004,0.051-0.009,0.077-0.014c0.58-0.092,1.148-0.204,1.705-0.334c0.065-0.015,0.131-0.029,0.196-0.044
			c0.009-0.002,0.018-0.005,0.027-0.007c0.257-0.062,0.51-0.129,0.761-0.199c0.051-0.014,0.102-0.028,0.153-0.042
			c0.059-0.017,0.117-0.036,0.176-0.054c0.252-0.075,0.504-0.15,0.75-0.233c0.007-0.002,0.014-0.005,0.021-0.007
			c0.003-0.001,0.005-0.002,0.008-0.003c0.426-0.144,0.839-0.301,1.242-0.468c0.013-0.005,0.025-0.01,0.038-0.016
			c0.086-0.036,0.173-0.071,0.258-0.108c0.125-0.054,0.247-0.111,0.37-0.168c0.004-0.002,0.008-0.004,0.013-0.006
			c0.114-0.053,0.228-0.105,0.34-0.16c0.091-0.044,0.18-0.09,0.269-0.135c0.062-0.032,0.126-0.062,0.188-0.095
			c0.137-0.072,0.269-0.146,0.402-0.221c0.027-0.015,0.057-0.029,0.084-0.044l22.146-12.785v23.096l-22.46,12.967
			c-0.003,0.002-0.007,0.004-0.01,0.006l-1.322,0.764c-3.374,1.939-8.378,2.689-13.06,1.957c-1.923-0.301-3.692-0.838-5.183-1.563
			c-0.285-0.139-0.563-0.282-0.827-0.434L36.933,81.015C36.869,80.978,36.803,80.946,36.736,80.918z M133.2,88.761
			c-0.011,0.085-0.015,0.171-0.012,0.258c0.001,0.038,0.004,0.077,0.007,0.119c0.005,1.558-1.171,3.175-3.232,4.441
			c-0.03,0.018-0.059,0.037-0.087,0.057l-24.719,14.271c-0.014,0.008-0.029,0.017-0.043,0.026l-24.569,14.186
			c-2.455,1.411-5.882,2.225-9.403,2.234c-0.308,0-0.615-0.006-0.92-0.017c-0.007,0-0.013-0.001-0.02-0.001
			c-0.28-0.011-0.559-0.027-0.837-0.047c-0.052-0.004-0.104-0.008-0.156-0.012c-0.232-0.018-0.464-0.041-0.695-0.066
			c-0.07-0.008-0.14-0.015-0.209-0.023c-0.274-0.033-0.547-0.069-0.819-0.111c-1.432-0.224-2.781-0.577-3.991-1.043
			c-0.727-0.279-1.403-0.599-2.019-0.954l-23.721-13.695V85.285l22.074,12.744c0.497,0.287,1.025,0.555,1.578,0.801
			c1.66,0.738,3.555,1.284,5.572,1.599c5.468,0.854,11.152-0.025,15.208-2.356l1.314-0.759c0.004-0.002,0.008-0.004,0.012-0.007
			l23.29-13.446c0.508-0.294,0.822-0.836,0.822-1.423V56.493l24.025-13.87c0.059-0.034,0.115-0.071,0.168-0.112
			c0.003-0.002,0.005-0.003,0.007-0.005c0.218-0.137,0.426-0.279,0.63-0.424c0.056-0.04,0.112-0.08,0.167-0.12
			c0.18-0.132,0.356-0.266,0.524-0.403c0.017-0.014,0.037-0.027,0.054-0.042L133.2,88.761L133.2,88.761z"/>
	</g>
</g>
<g>
	<path class="st0" d="M181.501,61.721c0,0.996-0.344,2.164-0.928,3.263c-0.274,0.515-0.274,0.755-0.618,1.442
		c-2.473,5.152-5.323,10.236-10.27,12.056c-0.378,0.138-0.756,0.138-1.1,0.138c-0.858,0-1.786-0.24-2.576-0.446
		c-0.034,0.309-0.412,0.309-0.927,0.309c-0.584,0-1.546-0.652-1.89-1.271c-1.099-0.446-2.919-1.271-2.919-2.438
		c0-0.447,0.309-0.584,0.687-0.584c0.31,0,0.722,0.103,1.271,0.103c0.413,0,0.653,0.378,0.928,0.378c0.104,0,0.172,0,0.206-0.103
		c1.03-4.191,2.508-8.45,4.19-12.538c0-0.206-0.034-0.206-0.138-0.206c-0.274,0-1.064,0.79-1.648,0.79
		c-0.309,0-0.687-0.309-0.687-0.755c0-1.615,0.034-1.786,2.438-3.435c1.924-1.305,4.74-2.542,7.247-2.542
		c0.996,0,2.37,0.137,3.298,0.79c0.927,0.652,1.889,1.099,2.747,2.232C181.261,59.489,181.501,60.038,181.501,61.721z
		 M175.799,57.943c-1.305,0-2.645,0.722-3.641,0.962c0.104,0.103,0.138,0.206,0.138,0.24c0,0.619-0.378,0.481-0.652,1.099
		c-2.302,5.152-4.844,10.27-5.599,15.697c0,0.207,0,0.241,0.206,0.31c0.24,0.068,0.721,0.104,1.064,0.104
		c1.271,0,2.37-0.55,3.297-1.443c3.264-3.229,5.428-7.076,7.11-11.197c0.31-0.755,0.79-1.958,0.79-2.782
		c0-0.171-0.138-1.374-0.412-1.786C177.482,58.252,176.658,57.943,175.799,57.943z"/>
	<path class="st0" d="M187.686,63.061c0,0.274-0.172,0.652-0.688,0.996c-0.274,0.171-0.721,0.549-0.996,1.614
		c-0.79,3.057-2.232,6.423-2.576,8.931c-0.068,0.446-0.068,0.618-0.068,0.79s0.24,0.48,0.48,0.48c0.104,0,0.516-0.138,0.756-0.344
		c1.236-1.099,1.236-1.373,1.82-1.992c2.13-2.301,4.019-4.843,5.118-7.694c0.172-0.446,0.206-0.515,0.618-0.755
		c0.31-0.172,0.516-0.206,0.79-0.206s0.584,0.275,0.824,0.343c0.55,0.172,0.687,0.412,0.687,0.618c0,0.55-0.068,0.687-0.206,0.996
		c-1.167,2.507-2.095,5.049-2.507,7.763c-0.104,0.721-0.206,1.58-0.206,2.542c0,0.858,0.618,1.545,0.618,2.301
		c0,0.24-0.068,0.516-0.206,0.618c-0.104,0.068-0.274,0.104-0.48,0.104c-0.481,0-0.928-0.275-1.306-0.516
		c-0.652-0.412-0.652-0.138-0.858-0.652c-0.275-0.688-0.344-1.374-0.344-2.062c0-0.858,0.103-1.991,0.103-2.335
		c0-0.104-0.034-0.206-0.137-0.206c-0.138,0-0.344,0.24-0.481,0.412c-1.167,1.374-2.404,2.61-3.847,3.331
		c-0.274,0.138-0.309,0.138-0.446,0.138s-1.202-0.138-2.061-0.652c-0.618-0.378-0.962-0.722-1.031-1.064
		c-0.103-0.516-0.171-1.134-0.171-1.478c0-1.236,0.446-2.748,0.79-3.916c0.274-0.928,0.274-1.271,0.583-2.164
		c0.722-2.061,1.1-4.225,2.404-6.458c0.378-0.652,0.928-0.893,1.478-0.893c0.344,0,0.996,0.172,1.168,0.55
		C187.41,62.442,187.686,62.683,187.686,63.061z M195.139,56.603c0,0.962-0.274,1.923-0.894,2.851
		c-0.309,0.447-0.961,0.996-1.992,0.996c-0.687,0-1.82-0.206-2.163-0.446c-0.928-0.653-1.237-1.305-1.237-1.958
		c0-1.03,1.134-3.263,2.164-3.641c0.378-0.137,0.824-0.24,1.271-0.24c0.274,0,0.618,0.034,0.893,0.103
		c1.03,0.274,1.82,1.099,1.89,1.511C195.104,56.054,195.139,56.328,195.139,56.603z M192.46,55.504c-0.31,0-0.413,0.069-0.55,0.24
		c-0.481,0.687-0.928,1.408-0.928,2.164c0,0.309,0.068,0.618,0.24,0.859c0.138,0.206,0.344,0.343,0.55,0.343
		c0.172,0,0.378-0.034,0.48-0.206c0.413-0.721,0.928-1.408,0.928-2.129c0-0.344-0.138-0.687-0.309-0.962
		C192.734,55.607,192.528,55.504,192.46,55.504z"/>
	<path class="st0" d="M203.418,62.477c0,0.171-0.068,0.721-0.412,1.202c-2.507,3.503-4.739,7.35-5.805,11.403
		c0,0.172,0.172,0.378,0.31,0.378c0.103,0,0.24-0.068,0.378-0.138c3.709-1.854,6.835-5.736,8.346-9.514
		c0.138-0.343,0.344-0.618,0.722-0.893c0.446-0.343,0.824-0.481,1.34-0.481c0.584,0,1.133,0.241,1.58,0.687
		c0.137,0.138,0.137,0.172,0.137,0.241c0,0.137-0.034,0.309-0.103,0.515c-0.618,1.683-2.096,3.022-2.954,4.706
		c-1.134,2.199-1.477,3.503-1.477,4.293c0,0.172,0.137,0.55,0.309,0.55c0.516,0,1.374-0.412,1.992-1.134
		c2.37-2.748,5.702-4.671,6.973-8.175c0.138-0.378,0.584-1.271,1.648-1.271c0.688,0,0.516,0.206,1.03,0.275
		c0.79,0.103,0.859,0.172,1.134,0.687c0.104,0.172,0.138,0.344,0.138,0.481c0,0.652-0.79,0.721-1.236,1.477
		c-1.684,2.816-2.404,4.568-2.404,6.286c0,1.1,0.309,2.267,1.099,3.435c0.138,0.206,0.24,0.275,0.31,0.31
		c0.206,0.103,0.48,0.412,0.48,0.687c0,0.275-0.31,0.55-0.824,0.55c-0.516,0-0.824-0.172-1.306-0.274
		c-0.378-0.069-0.893-0.516-1.614-1.958c-0.378-0.756-0.858-2.062-0.858-3.058c0-0.103-0.034-0.206-0.138-0.206
		c-0.068,0-0.137,0.035-0.274,0.138c-1.752,1.306-3.229,3.95-5.942,3.95c-0.618,0-1.236-0.138-1.752-0.378
		c-1.442-0.687-1.614-1.168-1.614-1.683c0-0.447,0-0.516-0.103-0.516c-0.069,0-0.138,0.068-0.24,0.172
		c-0.996,0.996-2.404,1.82-3.572,2.404c-0.206,0.103-0.412,0.206-0.55,0.206c-0.996,0-2.061-0.378-2.885-0.996
		c-0.138-0.104-0.206-0.172-0.275-0.446c-0.138-0.584-0.206-1.134-0.206-1.649c0-3.194,2.268-5.736,3.504-8.483
		c0.927-2.027,1.271-2.198,1.786-3.572c0.137-0.378,0.858-1.134,2.095-1.134c0.378,0,0.722,0.069,1.064,0.275
		C203.418,61.927,203.418,62.099,203.418,62.477z"/>
	<path class="st0" d="M222.45,74.12c0.31-0.584,0.516-0.721,1.134-0.721c0.378,0,0.824,0.24,1.133,0.687
		c0.412,0.618,0.722,0.688,0.722,1.236c0,0.104-0.034,0.206-0.103,0.31l-4.466,6.801c-0.24,0.378-0.756,0.688-0.824,0.688
		c-0.172,0-0.446-0.035-0.652-0.104c-0.104-0.034-0.516-0.138-0.652-0.138c-0.275,0-0.584-0.549-0.584-0.789
		c0-0.104,0-0.275,0.24-0.688l2.335-4.019C221.008,76.903,222.004,75.014,222.45,74.12z"/>
	<path class="st0" d="M248.074,56.122c-0.652,0.893-0.687,1.065-0.858,1.34c-1.614,2.645-2.508,5.53-3.71,8.312
		c-0.068,0.137-0.103,0.24-0.103,0.309s0.034,0.103,0.103,0.103c0.104,0,0.241-0.069,0.413-0.172
		c2.198-1.339,4.431-2.919,5.839-5.152c0.24-0.378,0.446-0.55,0.687-0.722c0.344-0.24,0.722-0.343,1.03-0.343
		c0.31,0,0.481,0.034,0.928,0.309s0.618,0.481,0.618,0.618c0,0.515-0.858,1.717-1.546,2.301c-0.549,0.481-0.549,0.687-0.961,1.031
		c-1.752,1.477-3.676,2.748-5.496,3.95c-0.206,0.137-0.24,0.309-0.24,0.447c0,0.24,0.172,0.583,0.721,2.37
		c0.206,0.653,1.58,3.503,1.89,3.916c0.996,1.374,1.305,1.752,2.816,2.37c0.412,0.172,0.722-0.137,0.722,0.516
		c0,0.446-0.584,0.652-0.722,0.858c-0.172,0.275-0.378,0.378-0.824,0.378c-1.306,0-2.096-0.446-2.645-0.996
		c-0.31-0.309-0.481-0.48-0.618-0.584c-0.207-0.172-0.447-0.344-0.653-0.687c-1.958-3.572-2.61-6.114-3.057-7.145
		c-0.104-0.24-0.206-0.274-0.274-0.274c-0.035,0-0.104,0.034-0.138,0.137c-0.756,1.82-1.546,3.882-1.924,6.011
		c-0.137,0.722-0.446,2.37-1.168,2.37c-0.274,0-0.48,0.104-0.858,0.104c-0.172,0-1.202-0.069-1.202-1.1
		c0-0.24,0.104-0.687,0.24-1.03c0.069-0.172,0.104-0.378,0.138-0.48c2.302-7.11,5.599-14.014,8.553-21.021l0.378-0.893
		c0.172-0.447,0.378-0.653,0.549-0.653c0.275,0,0.31,0.034,1.134,0.137s1.271,0.481,1.271,0.962
		C249.104,54.714,248.624,55.367,248.074,56.122z"/>
	<path class="st0" d="M257.763,63.164c-0.344,0.721-0.79,2.026-0.79,2.129c0,0.069,0.068,0.103,0.138,0.103
		c0.103,0,0.515-0.069,0.858-0.137c1.511-0.31,3.469-1.031,4.603-1.718c0.172-0.103,0.31-0.171,0.378-0.171
		c0.584,0,1.683,0.48,1.683,0.893c0,0.446-0.378,0.996-1.133,1.305c-0.928,0.377-0.928,0.48-1.546,0.721
		c-1.684,0.652-4.603,1.305-5.324,1.545c-0.309,0.103-0.515,0.275-0.652,0.516c-0.274,0.48-0.446,1.133-0.584,1.648
		c-0.103,0.378-0.31,0.721-0.378,1.099c-0.206,1.134-1.374,4.054-1.58,5.771c-0.034,0.31-0.378,1.202-0.858,1.442
		c-0.138,0.069-0.378,0.104-0.516,0.104c-0.412,0-0.961-0.172-1.236-0.378c-0.274-0.206-0.378-0.516-0.378-0.824
		c0-0.275,0.034-0.722,0.138-1.03c0.858-2.542,1.477-5.53,2.576-8.175c0.034-0.103,0.068-0.172,0.068-0.24
		c0-0.069-0.034-0.138-0.172-0.206c-1.236-0.619-1.442-1.512-2.232-2.164c-0.172-0.137-0.172-0.309-0.172-0.412
		c0-0.241,0.138-0.309,0.412-0.447c0.206-0.103,0.378-0.171,0.688-0.171c0.756,0,1.614,0.549,2.232,0.549
		c0.31,0,0.516-0.172,0.584-0.481c0.103-0.377,0.274-0.893,0.55-1.614c0.824-2.095,1.751-4.774,2.919-7.282
		c0.206-0.446,0.24-0.446,0.378-0.446c0.55,0,0.618-0.172,0.962-0.172c0.31,0,0.893,0.103,1.305,0.275
		c0.172,0.069,0.31,0.137,0.31,0.24c0,0.069,0,0.172-0.034,0.378C260.511,58.492,258.861,60.828,257.763,63.164z"/>
	<path class="st0" d="M265.045,78.139c-0.412,0-0.755-0.034-1.305-0.24c-0.756-0.274-1.958-0.824-2.198-0.962
		c-0.688-0.377-1.34-1.236-1.718-2.369c-0.24-0.688-0.412-1.992-0.412-2.646c0-0.309,0.034-0.652,0.172-1.133
		c0.962-3.503,3.297-6.526,5.908-9.308c0.583-0.618,1.992-1.546,3.675-1.546c0.928,0,1.408,0.138,2.095,0.378
		c0.378,0.137,1.1,0.756,1.1,2.129c0,0.893-0.378,1.649-0.79,2.473c-0.344,0.687-0.618,1.065-1.1,1.614
		c-2.369,2.679-5.049,5.668-7.968,7.282c-0.172,0.103-0.206,0.172-0.206,0.274c0,0.55,0.515,1.271,0.824,1.442
		c0.378,0.206,0.721,0.275,1.064,0.275c0.584,0,1.099-0.138,2.645-0.962c2.37-1.271,3.812-3.126,5.874-4.431
		c0.378-0.24,0.549-0.24,0.687-0.24c0.206,0,0.687,0.343,0.687,0.687c0,0.309-0.034,0.343-0.034,0.446c0,0.137,0,0.343-0.172,0.481
		c-1.648,1.408-2.369,3.125-7.591,6.011C265.663,78.139,265.492,78.139,265.045,78.139z M269.476,62.442
		c0-0.274,0-0.412-0.206-0.412s-0.412,0.103-0.721,0.309c-0.378,0.241-0.344,0.138-0.688,0.447
		c-2.232,1.992-4.637,4.809-5.393,7.866c0,0.137,0.035,0.171,0.069,0.171c0.068,0,0.137-0.034,0.24-0.103
		c2.026-1.545,3.71-3.435,5.255-5.29c0.516-0.618,0.378-0.721,0.824-1.408C269.201,63.507,269.476,63.061,269.476,62.442z"/>
	<path class="st0" d="M277.55,64.572c0,0.377-0.068,0.755-0.206,1.167c-0.104,0.413-0.138,0.481-0.138,0.55
		c0,0.103,0,0.137,0.104,0.137c0.034,0,0.172-0.034,0.446-0.274c1.889-1.443,3.538-2.405,4.774-2.817
		c0.103-0.034,0.309-0.068,0.412-0.068c0.962,0,1.924,0.274,2.507,0.961c0.138,0.138,0.241,0.378,0.241,0.584
		c0,1.065-0.928,1.511-1.202,1.511c-0.516,0-1.065-0.343-1.546-0.343c-0.104,0-0.24,0-0.55,0.137
		c-3.744,1.752-7.453,4.809-8.655,9.858c-0.24,1.03-0.618,1.477-0.858,1.648c-0.172,0.206-0.481,0.309-0.619,0.309
		c-0.549-0.034-0.789-0.446-1.03-0.721c-0.343-0.344-0.618-0.894-0.652-1.306c0-1.168,1.442-2.301,1.854-3.606
		c0.859-2.61,1.82-5.187,2.37-7.934c0.034-0.309,0.069-0.481,0.069-0.55c0-0.206-0.275-0.481-0.31-0.79
		c0-0.275,0.55-0.755,1.34-0.755c0.48,0,1.03,0.206,1.133,0.377C277.344,63.129,277.55,63.747,277.55,64.572z"/>
	<path class="st0" d="M288.439,63.335c-0.584,1.031-0.653,0.79-0.894,1.305c-1.202,2.576-1.511,4.293-2.404,7.007
		c-0.138,0.413-0.206,0.722-0.274,1.1c-0.069,0.377-0.172,0.755-0.172,1.099c0,0.31,0.068,0.55,0.172,0.55
		c0.274,0,0.48-0.069,0.756-0.206c0.618-0.31,1.442-0.824,2.713-2.268c0.274-0.309,0.722-0.687,1.271-1.374
		c1.065-1.306,2.748-2.37,4.396-6.767c0.104-0.275,0.584-1.031,0.894-1.031c0.378,0,0.515,0.241,1.064,0.241
		c1.134,0,1.202,0.755,1.202,1.236c0,0.618-0.412,1.202-0.79,1.752l-0.652,1.03c-0.858,1.305-1.546,2.816-2.095,4.431
		c-0.275,0.825-1.649,4.363-1.89,5.153c-0.309,0.962-0.412,1.236-0.412,1.374c0,0.068,0.068,0.068,0.138,0.068
		c0.068,0,0.206-0.034,0.309-0.034c0.206,0,0.618,0.137,0.618,0.378c0,0.515-0.103,0.721-0.206,0.858
		c-2.335,3.092-3.469,6.423-4.155,9.687c-0.275,1.339-0.31,3.435-2.13,3.675c-0.274,0.034-0.516,0.138-0.928,0.138
		c-0.515,0-1.305-0.069-1.305-1.306c0-0.652,0.24-1.58,0.721-2.713c0.756-1.786,1.786-3.916,2.954-5.874
		c0.068-0.618,1.134-4.087,2.061-6.904c0.584-1.82,0.619-2.061,0.619-2.163c0-0.069-0.035-0.138-0.104-0.138
		s-0.206,0.103-0.48,0.378c-1.202,1.202-3.436,2.645-3.778,2.645c-1.443,0-2.508-0.446-3.264-1.374
		c-0.172-0.206-0.206-0.274-0.206-0.824c0-4.74,2.198-8.038,3.538-12.502c0.206-0.687,0.962-0.996,1.202-0.996
		c0.172,0,0.618,0.171,0.962,0.171s0.893,0.309,0.893,0.756C288.782,62.477,288.714,62.854,288.439,63.335z M296.579,55.95
		c0.104-0.068,0.344-0.103,0.481-0.103c0.274,0,0.446,0.069,0.652,0.275c0.31,0.309,0.378,0.515,0.378,0.962
		c0,0.549-0.034,0.721-0.172,0.893c-0.31,0.377-0.824,0.584-2.473,1.099l-4.054,1.271c-0.24,0.069-0.446,0.103-0.687,0.103
		c-0.172,0-0.31-0.034-0.378-0.068c-0.206-0.138-0.378-0.275-0.516-0.481c-0.137-0.206-0.206-0.275-0.309-0.378
		c-0.068-0.069-0.104-0.206-0.104-0.275c0-0.137,0.035-0.309,0.172-0.48c0.104-0.138,0.344-0.172,0.447-0.172
		c0.137,0,0.412-0.103,0.858-0.275l3.057-1.168C294.45,56.947,296.064,56.294,296.579,55.95z"/>
	<path class="st0" d="M313.205,62.477c0,0.171-0.068,0.721-0.412,1.202c-2.507,3.503-4.739,7.35-5.805,11.403
		c0,0.172,0.172,0.378,0.31,0.378c0.103,0,0.24-0.068,0.378-0.138c3.709-1.854,6.835-5.736,8.346-9.514
		c0.138-0.343,0.344-0.618,0.722-0.893c0.446-0.343,0.824-0.481,1.34-0.481c0.584,0,1.133,0.241,1.58,0.687
		c0.137,0.138,0.137,0.172,0.137,0.241c0,0.137-0.034,0.309-0.103,0.515c-0.618,1.683-2.096,3.022-2.954,4.706
		c-1.134,2.199-1.477,3.503-1.477,4.293c0,0.172,0.137,0.55,0.309,0.55c0.516,0,1.374-0.412,1.992-1.134
		c2.37-2.748,5.702-4.671,6.973-8.175c0.138-0.378,0.584-1.271,1.648-1.271c0.688,0,0.516,0.206,1.03,0.275
		c0.79,0.103,0.859,0.172,1.134,0.687c0.104,0.172,0.138,0.344,0.138,0.481c0,0.652-0.79,0.721-1.236,1.477
		c-1.684,2.816-2.404,4.568-2.404,6.286c0,1.1,0.309,2.267,1.099,3.435c0.138,0.206,0.24,0.275,0.31,0.31
		c0.206,0.103,0.48,0.412,0.48,0.687c0,0.275-0.31,0.55-0.824,0.55c-0.516,0-0.824-0.172-1.306-0.274
		c-0.378-0.069-0.893-0.516-1.614-1.958c-0.378-0.756-0.858-2.062-0.858-3.058c0-0.103-0.034-0.206-0.138-0.206
		c-0.068,0-0.137,0.035-0.274,0.138c-1.752,1.306-3.229,3.95-5.942,3.95c-0.618,0-1.236-0.138-1.752-0.378
		c-1.442-0.687-1.614-1.168-1.614-1.683c0-0.447,0-0.516-0.103-0.516c-0.069,0-0.138,0.068-0.24,0.172
		c-0.996,0.996-2.404,1.82-3.572,2.404c-0.206,0.103-0.412,0.206-0.55,0.206c-0.996,0-2.061-0.378-2.885-0.996
		c-0.138-0.104-0.206-0.172-0.275-0.446c-0.138-0.584-0.206-1.134-0.206-1.649c0-3.194,2.268-5.736,3.504-8.483
		c0.927-2.027,1.271-2.198,1.786-3.572c0.137-0.378,0.858-1.134,2.095-1.134c0.378,0,0.722,0.069,1.064,0.275
		C313.205,61.927,313.205,62.099,313.205,62.477z"/>
	<path class="st0" d="M344.774,63.404c0.172,0,0.687,0.034,0.962,0.446c0.068,0.104,0.068,0.138,0.068,0.207
		c0,0.137-0.068,0.274-0.138,0.377c-1.511,2.061-3.332,4.637-3.984,7.282c-0.24,0.962-0.48,1.992-0.48,3.058
		c0,0.893,0.206,1.786,0.721,2.576c0.035,0.068,0.069,0.137,0.069,0.206c0,0.068-0.138,0.412-0.722,0.48
		c-0.206,0.034-0.446,0.138-0.652,0.138c-0.516,0-1.271-0.241-1.478-0.688c-0.446-0.996-0.583-1.992-0.583-2.954
		c0-1.03,0.137-1.614,0.137-1.717c0-0.138,0-0.172-0.137-0.172c-0.138,0-0.447,0.24-0.825,0.618l-1.854,1.718
		c-1.786,1.683-2.885,2.164-4.087,2.576c-0.206,0.068-0.412,0.137-0.55,0.137c-0.378,0-0.79-0.24-2.404-1.545
		c-0.172-0.138-0.756-0.722-0.756-2.027c0-1.133,0.378-2.576,2.061-5.083c2.027-3.022,3.916-4.396,4.946-5.152
		c1.684-1.237,3.47-2.129,5.496-2.713c0.24-0.069,0.515-0.103,0.756-0.103c0.789,0,1.477,0.377,2.095,0.996
		c0.172,0.171,0.446,0.48,0.516,0.687C344.087,63.095,344.396,63.404,344.774,63.404z M340.687,63.541
		c-3.229,1.718-5.771,3.606-7.728,5.977c-1.443,1.752-2.576,3.778-2.576,4.774c0,0.412,0.137,0.928,0.755,0.928
		c0.275,0,1.065-0.378,1.684-0.962c3.194-2.988,6.801-5.29,8.553-8.553c0.24-0.446,0.618-0.927,0.996-1.305
		c0.103-0.103,0.172-0.309,0.172-0.515c0-0.241-0.207-0.687-0.79-0.687C341.648,63.198,341.133,63.301,340.687,63.541z
		 M347.075,54.851c0.104-0.068,0.344-0.103,0.481-0.103c0.274,0,0.446,0.069,0.652,0.275c0.309,0.309,0.378,0.515,0.378,0.962
		c0,0.549-0.034,0.721-0.172,0.893c-0.31,0.377-0.824,0.584-2.473,1.099l-4.054,1.271c-0.24,0.069-0.446,0.103-0.687,0.103
		c-0.172,0-0.31-0.034-0.378-0.068c-0.206-0.138-0.378-0.275-0.516-0.481c-0.137-0.206-0.206-0.275-0.309-0.378
		c-0.069-0.069-0.104-0.206-0.104-0.275c0-0.137,0.034-0.309,0.172-0.48c0.104-0.138,0.344-0.172,0.446-0.172
		c0.138,0,0.412-0.103,0.859-0.275l3.057-1.168C344.946,55.847,346.561,55.195,347.075,54.851z"/>
	<path class="st0" d="M364.148,63.988c0,1.305-0.516,2.232-0.996,2.851c-0.274,0.344-0.31,0.378-0.48,0.378
		c-0.378,0-0.962-0.24-1.203-0.446c-0.309-0.241-0.515-0.584-0.515-1.099c0-0.069,0.034-0.172,0.103-0.275
		c0.31-0.515,0.584-0.996,0.584-1.58c0-0.275-0.103-0.687-0.24-0.927c-0.138-0.241-0.48-0.481-0.756-0.481
		c-0.24,0-1.82,1.958-2.095,3.538c-0.034,0.241-0.068,0.481-0.068,0.893c0,0.206,0.171,1.752,0.24,2.198
		c0.309,2.576,1.099,6.423,1.099,7.832c0,0.275-0.137,0.481-0.274,0.618c-0.618,0.618-1.236,1.236-2.164,1.236
		c-0.31,0-0.687-0.068-0.858-0.137c-2.268-0.928-3.882-2.714-5.015-4.603c-0.104-0.172-0.206-0.412-0.206-0.516
		c0-0.515,0.515-1.271,1.236-1.271c0.687,0,0.996,0.068,1.305,0.48c0.79,1.064,1.202,2.37,2.233,3.298
		c0.343,0.309,0.515,0.378,0.687,0.378c0.206,0,0.344-0.138,0.344-0.275s0-0.206-0.172-1.064c-0.481-2.267-1.1-7.419-1.1-8.106
		c0-0.927,0.412-2.885,1.236-4.19c0.996-1.58,2.405-2.198,3.058-2.198c1.889,0,2.645,0.481,3.366,1.237
		C363.977,62.271,364.148,63.301,364.148,63.988z"/>
	<path class="st0" d="M369.576,64.572c0,0.377-0.068,0.755-0.206,1.167c-0.104,0.413-0.138,0.481-0.138,0.55
		c0,0.103,0,0.137,0.104,0.137c0.034,0,0.172-0.034,0.446-0.274c1.889-1.443,3.538-2.405,4.774-2.817
		c0.103-0.034,0.309-0.068,0.412-0.068c0.962,0,1.924,0.274,2.507,0.961c0.138,0.138,0.241,0.378,0.241,0.584
		c0,1.065-0.928,1.511-1.202,1.511c-0.516,0-1.065-0.343-1.546-0.343c-0.104,0-0.24,0-0.55,0.137
		c-3.744,1.752-7.453,4.809-8.655,9.858c-0.24,1.03-0.618,1.477-0.858,1.648c-0.172,0.206-0.481,0.309-0.619,0.309
		c-0.549-0.034-0.789-0.446-1.03-0.721c-0.343-0.344-0.618-0.894-0.652-1.306c0-1.168,1.442-2.301,1.854-3.606
		c0.859-2.61,1.82-5.187,2.37-7.934c0.034-0.309,0.069-0.481,0.069-0.55c0-0.206-0.275-0.481-0.31-0.79
		c0-0.275,0.55-0.755,1.34-0.755c0.48,0,1.03,0.206,1.133,0.377C369.37,63.129,369.576,63.747,369.576,64.572z"/>
	<path class="st0" d="M396.644,53.924c-0.31,0.447-0.412,0.893-0.79,1.477c-1.992,3.194-4.603,6.664-5.736,9.789l-0.55,1.511
		c-2.061,5.771-2.61,8.278-2.61,9.515s0.275,1.648,0.275,1.923c0,0.104-0.034,0.138-0.138,0.241c-0.48,0.48-0.378,0.721-1.236,0.721
		c-0.31,0-1.202-0.446-1.236-0.652c-0.138-0.79-0.206-1.512-0.206-2.232c0-1.786,0.378-3.263,0.893-5.084
		c0.274-0.961,1.064-2.404,1.064-2.473c0-0.035,0-0.069-0.068-0.069s-0.138,0.069-0.344,0.309c-2.747,3.194-5.427,6.561-8.793,8.587
		c-0.343,0.206-0.755,0.24-1.03,0.24c-0.687,0-2.301-0.824-2.438-1.064c-0.378-0.652-0.584-1.271-0.584-1.958
		c0-0.962,0.378-2.095,1.202-3.675c1.648-3.125,4.362-5.805,7.247-7.728c0.516-0.343,1.58-0.653,2.474-0.653
		c0.378,0,0.721,0.069,0.962,0.172c0.446,0.206,1.202,0.378,1.614,0.653c0.171,0,0.24,0,0.274-0.035
		c3.572-3.881,5.049-8.243,8.003-12.125c0.206-0.275,0.344-0.412,0.79-0.412s1.683,0.549,1.683,1.133
		C397.364,52.825,397.09,53.272,396.644,53.924z M384.69,64.675c-0.344,0-0.584,0.034-0.858,0.171
		c-3.332,1.683-6.595,5.324-8.003,9.103c-0.034,0.103-0.104,0.343-0.104,0.446c0,0.343,0.069,0.79,0.24,0.79
		c0.138,0,0.206-0.034,0.344-0.138c0.206-0.172,0.412-0.172,0.722-0.412c2.953-2.302,5.495-5.393,7.728-8.381
		c0.412-0.55,0.722-0.653,0.722-1.237C385.48,64.812,385.24,64.675,384.69,64.675z"/>
	<path class="st0" d="M402.725,71.132c0.48,0,1.133,0.79,1.133,0.894c0,0.138-0.137,0.206-0.137,0.344
		c0,0.206-0.034,0.309-0.275,0.412c-1.064,0.446-2.301,1.408-3.778,2.61c-1.923,1.545-3.641,2.541-5.083,2.541
		c-1.889,0-3.298-1.339-3.469-1.683c-0.275-0.55-0.412-1.064-0.412-1.614c0-0.824,0.309-1.718,0.549-2.576
		c0.069-0.24,0.172-0.859,0.412-1.34c1.786-3.572,4.26-7.762,7.145-9.205c0.206-0.103,0.275-0.103,0.55-0.103
		c1.168,0,2.679,0.55,3.572,1.442c0.137,0.138,0.137,0.207,0.137,0.481c0,0.378,0.069,0.412,0.069,0.515
		c0,0.069,0,0.104-0.034,0.241c-0.104,0.412-1.168,2.026-1.168,3.229c0,0.275-0.206,0.515-0.653,0.515
		c-0.24,0-0.48-0.068-0.687-0.24l-0.893-0.653c-0.275-0.206-0.378-0.48-0.378-0.755c0-0.687,0.755-1.511,0.755-2.061
		c0-0.137-0.103-0.343-0.274-0.343c-0.206,0-0.274,0.068-0.55,0.343c-1.442,1.443-3.022,3.469-4.19,5.53
		c-1.202,2.13-1.992,4.396-1.992,5.255c0,0.447,0.275,0.722,0.584,0.722c1.58,0,3.194-0.894,4.878-2.164
		C400.045,72.334,401.763,71.132,402.725,71.132z"/>
	<path class="st0" d="M408.53,78.139c-0.412,0-0.755-0.034-1.305-0.24c-0.756-0.274-1.958-0.824-2.198-0.962
		c-0.688-0.377-1.34-1.236-1.718-2.369c-0.24-0.688-0.412-1.992-0.412-2.646c0-0.309,0.034-0.652,0.172-1.133
		c0.962-3.503,3.297-6.526,5.908-9.308c0.583-0.618,1.991-1.546,3.675-1.546c0.928,0,1.408,0.138,2.095,0.378
		c0.378,0.137,1.1,0.756,1.1,2.129c0,0.893-0.378,1.649-0.79,2.473c-0.344,0.687-0.618,1.065-1.1,1.614
		c-2.369,2.679-5.049,5.668-7.968,7.282c-0.172,0.103-0.206,0.172-0.206,0.274c0,0.55,0.515,1.271,0.824,1.442
		c0.378,0.206,0.721,0.275,1.064,0.275c0.584,0,1.1-0.138,2.645-0.962c2.37-1.271,3.812-3.126,5.874-4.431
		c0.378-0.24,0.549-0.24,0.687-0.24c0.206,0,0.688,0.343,0.688,0.687c0,0.309-0.035,0.343-0.035,0.446c0,0.137,0,0.343-0.172,0.481
		c-1.648,1.408-2.369,3.125-7.591,6.011C409.148,78.139,408.978,78.139,408.53,78.139z M412.961,62.442c0-0.274,0-0.412-0.206-0.412
		s-0.412,0.103-0.721,0.309c-0.378,0.241-0.344,0.138-0.688,0.447c-2.232,1.992-4.637,4.809-5.393,7.866
		c0,0.137,0.035,0.171,0.069,0.171c0.068,0,0.137-0.034,0.24-0.103c2.026-1.545,3.71-3.435,5.255-5.29
		c0.516-0.618,0.378-0.721,0.824-1.408C412.687,63.507,412.961,63.061,412.961,62.442z"/>
	<path class="st0" d="M421.894,76.491c-0.206,0.584-0.412,0.859-0.722,1.1c-0.377,0.309-0.755,0.309-1.271,0.309
		c-0.378,0-1.134-0.309-1.717-1.202c-0.206-0.309-0.275-0.618-0.275-0.79c0-0.24,0.138-0.549,0.275-0.687
		c0.24-0.24,0.412-0.584,0.446-0.928c0.034-0.343,0.172-0.652,0.343-0.858c0.207-0.24,0.55-0.274,1.134-0.274
		c0.756,0,1.512,0.549,1.786,1.064c0.24,0.446,0.274,0.687,0.274,0.928C422.168,75.426,421.997,76.182,421.894,76.491z"/>
</g>
</svg>
