<?xml version="1.0" encoding="utf-8"?>
<!-- Generator: Adobe Illustrator 23.0.4, SVG Export Plug-In . SVG Version: 6.00 Build 0)  -->
<svg version="1.1" id="Vrstva_1" xmlns="http://www.w3.org/2000/svg" xmlns:xlink="http://www.w3.org/1999/xlink" x="0px" y="0px"
	 viewBox="0 0 1160.6 282.8" style="enable-background:new 0 0 1160.6 282.8;" xml:space="preserve">
<style type="text/css">
	.st0{fill:url(#SVGID_1_);}
	.st1{fill:url(#SVGID_2_);}
	.st2{fill:url(#SVGID_3_);}
	.st3{fill:#35503C;}
	.st4{fill:url(#SVGID_4_);}
	.st5{fill:url(#SVGID_5_);}
	.st6{fill:#193021;}
	.st7{fill:#48AC35;}
	.st8{fill:none;}
	.st9{fill:url(#SVGID_6_);}
	.st10{fill:url(#SVGID_7_);}
</style>
<linearGradient id="SVGID_1_" gradientUnits="userSpaceOnUse" x1="164.8201" y1="799.8185" x2="131.041" y2="710.6991" gradientTransform="matrix(1 0 0 1 0 -541.347)">
	<stop  offset="1.400000e-03" style="stop-color:#2D4635"/>
	<stop  offset="1" style="stop-color:#1E1E1C"/>
</linearGradient>
<path class="st0" d="M77.3,238.9L208.7,163l-131.4,5C77.3,168,77.3,238.9,77.3,238.9z"/>
<linearGradient id="SVGID_2_" gradientUnits="userSpaceOnUse" x1="246.2274" y1="874.3613" x2="176.5306" y2="690.4803" gradientTransform="matrix(1 0 0 1 0 -541.347)">
	<stop  offset="0" style="stop-color:#1F7031"/>
	<stop  offset="1" style="stop-color:#299137"/>
</linearGradient>
<path class="st1" d="M77.3,168l131.4-75.9l80.9,74.6l-115.7,84.9L77.3,168z"/>
<linearGradient id="SVGID_3_" gradientUnits="userSpaceOnUse" x1="77.3324" y1="308.3593" x2="337.6358" y2="308.3593" gradientTransform="matrix(1 0 0 -1 0 472.3937)">
	<stop  offset="1.400000e-03" style="stop-color:#2D4635"/>
	<stop  offset="1" style="stop-color:#1E1E1C"/>
</linearGradient>
<path class="st2" d="M337.6,45.2L337.6,45.2c-0.7,5.3-4.4,10.2-10.6,14c0,0,0,0,0,0l-17,9.8l-17.8,10.3l-10.6,6.1l0,0l-20.1,11.6
	V168l-10.1,5.8l-22.6,13l-21,12.1l-3,1.7l-4.8,2.8l0,0l0,0l0,0l-3.5,2c-9.4,5.4-23.5,7.8-37.3,5.7c-6.8-1.1-12.7-3.1-17.3-5.8
	l-16.3-9.4l-48.4-28v70.9l48.5,28l16.3,9.4c4.7,2.7,10.5,4.7,17.3,5.8c3.5,0.5,6.9,0.8,10.3,0.8c10.2,0,19.9-2.4,26.9-6.5l11.3-6.5
	l53.6-31l0,0l30.7-17.7l17.8-10.3l12.8-7.4l4.1-2.4c0,0,0,0,0,0c6.8-4.2,10.7-9.7,10.6-15.6c0-0.1,0-0.2,0-0.3c0,0,0,0,0,0
	L337.6,45.2L337.6,45.2z"/>
<g>
	<path class="st3" d="M336.3,38.2c-1.9-4.1-5.7-7.7-10.7-10.4c0,0,0,0,0,0l-9.6-5.5L292.2,8.5L288,6c0,0,0,0,0,0
		c-9.4-5.1-23.1-7.4-36.5-5.3c-6.5,1-12.2,2.9-16.7,5.5c0,0,0,0,0,0l-4.3,2.4l-61.1,35.2l0,0l82,47.4l10.1,5.8l0,0l30.7-17.7
		l17.8-10.3l17-9.8c0,0,0,0,0,0c6.2-3.8,9.9-8.7,10.5-14C337.8,42.9,337.4,40.6,336.3,38.2z"/>
</g>
<linearGradient id="SVGID_4_" gradientUnits="userSpaceOnUse" x1="170.9898" y1="444.9272" x2="304.6689" y2="669.163" gradientTransform="matrix(1 0 0 1 0 -541.347)">
	<stop  offset="0" style="stop-color:#FFFFFF;stop-opacity:0.2"/>
	<stop  offset="1" style="stop-color:#FFFFFF;stop-opacity:0"/>
</linearGradient>
<path class="st4" d="M336.3,38.2c-1.9-4.1-5.7-7.7-10.7-10.4c0,0,0,0,0,0l-9.6-5.5L292.2,8.5L288,6c0,0,0,0,0,0
	c-9.4-5.1-23.1-7.4-36.5-5.3c-6.5,1-12.2,2.9-16.7,5.5c0,0,0,0,0,0l-4.3,2.4l-61.1,35.2l0,0l82,47.4l10.1,5.8l0,0l30.7-17.7
	l17.8-10.3l17-9.8c0,0,0,0,0,0c6.2-3.8,9.9-8.7,10.5-14C337.8,42.9,337.4,40.6,336.3,38.2z"/>
<linearGradient id="SVGID_5_" gradientUnits="userSpaceOnUse" x1="281.0211" y1="820.2047" x2="205.2757" y2="620.3654" gradientTransform="matrix(1 0 0 1 0 -541.347)">
	<stop  offset="0" style="stop-color:#1F2D31"/>
	<stop  offset="1" style="stop-color:#299137"/>
</linearGradient>
<polygon class="st5" points="169.4,114.8 261.5,168 261.5,97.1 169.4,43.9 "/>
<g>
	<path class="st6" d="M451.7,171.5c0.9,0.6,2.4,1.4,4.7,2.4c2.2,1,5,2,8.3,3.1c3.3,1.1,7.1,2,11.3,2.7c4.2,0.8,8.9,1.1,13.9,1.1
		c6.5,0,11.8-0.8,15.9-2.5c4.1-1.7,6.2-4.6,6.2-8.7c0-3.5-1.3-6.2-3.9-8c-2.6-1.8-7.3-3.1-14.1-3.8l-14.6-1.7
		c-5-0.5-9.6-1.4-13.8-2.7c-4.2-1.3-7.8-3.1-10.8-5.3c-3-2.2-5.3-5-7-8.3c-1.7-3.3-2.5-7.3-2.5-11.9c0-4,0.8-7.8,2.3-11.3
		c1.6-3.6,4-6.7,7.4-9.5c3.4-2.7,7.8-4.9,13.2-6.5c5.4-1.6,12-2.3,19.8-2.3c13,0,23.1,1.4,30.3,4.3c7.2,2.9,10.8,6.6,10.8,11.2
		c0,1.5-0.3,2.8-0.8,3.9c-0.6,1.1-1.2,2.1-1.9,3c-0.7,0.9-1.4,1.6-2.2,2.2c-0.7,0.6-1.3,0.9-1.7,1c-0.5-0.5-1.6-1.3-3.3-2.3
		c-1.7-1.1-4-2.1-6.8-3.2c-2.9-1.1-6.3-2-10.3-2.8c-4-0.8-8.6-1.2-13.9-1.2c-14.5,0-21.7,3.8-21.7,11.4c0,3.3,1.4,5.7,4.1,7.4
		c2.7,1.7,6.7,2.8,11.8,3.5l19.1,2.4c10.4,1.4,18.4,4.2,24.2,8.5c5.7,4.3,8.6,10.7,8.6,19c0,9.4-3.7,16.9-11.2,22.5
		c-7.4,5.6-18.2,8.4-32.1,8.4c-6.7,0-12.9-0.5-18.4-1.5c-5.5-1-10.3-2.2-14.3-3.5c-4.1-1.3-7.3-2.6-9.8-3.8
		c-2.5-1.2-4.1-2.2-4.9-2.8L451.7,171.5z"/>
	<path class="st6" d="M552.2,134.4c0-6,1.1-11.2,3.2-15.7c2.1-4.5,5-8.2,8.7-11.2c3.7-3,8-5.3,13-6.8c5-1.6,10.4-2.3,16.3-2.3
		c7.7,0,14.7,1.4,20.8,4.3c6.1,2.9,11,7.1,14.6,12.7c3.6-5.6,8.4-9.9,14.4-12.7c6-2.9,12.8-4.3,20.4-4.3c5.7,0,11.1,0.8,16.1,2.2
		c5,1.5,9.3,3.7,12.9,6.7c3.6,3,6.5,6.7,8.6,11.2c2.1,4.5,3.2,9.7,3.2,15.7V195h-21.4v-53.4c0-8.6-1.9-14.8-5.8-18.5
		c-3.9-3.7-9.1-5.5-15.7-5.5c-6.4,0-11.7,2.1-16,6.2c-4.3,4.1-6.5,10.8-6.5,20.1V195h-21.4v-51.2c0-9.2-2.2-15.9-6.5-20.1
		c-4.3-4.1-9.7-6.2-16-6.2c-6.5,0-11.7,1.9-15.7,5.6c-4,3.7-6,9.9-6,18.6V195h-21.4L552.2,134.4L552.2,134.4L552.2,134.4z"/>
	<path class="st6" d="M811,194.6c-1.3,0.3-3.2,0.5-5.9,0.8c-2.7,0.3-5.8,0.6-9.5,0.9c-3.6,0.3-7.7,0.6-12.2,0.8
		c-4.5,0.2-9.2,0.4-14.1,0.4c-9.7,0-17.7-0.8-23.9-2.5c-6.2-1.7-11.1-3.9-14.6-6.7c-3.6-2.8-6-6.1-7.3-9.7c-1.3-3.7-2-7.5-2-11.3
		c0-5.1,0.8-9.6,2.3-13.5c1.6-3.9,4.1-7.1,7.7-9.7c3.6-2.6,8.2-4.6,14-5.9c5.7-1.3,12.7-2,21-2c4.7,0,9.2,0.2,13.5,0.5
		c4.2,0.3,7.4,0.6,9.6,0.8c0-4.4-0.7-8-2.2-10.9c-1.4-2.9-3.4-5.1-5.9-6.7c-2.5-1.6-5.5-2.7-9-3.4c-3.5-0.6-7.4-0.9-11.6-0.9
		c-7.1,0-12.8,0.8-17.1,2.4c-4.3,1.6-7.2,3-8.5,4.1c-0.8-0.6-1.8-1.8-3.1-3.6c-1.3-1.7-2-3.9-2-6.4c0-1.7,0.5-3.5,1.4-5.2
		c0.9-1.7,2.6-3.2,5-4.5c2.4-1.3,5.6-2.3,9.6-3.1c4-0.7,9.1-1.1,15.2-1.1c7.4,0,14.1,0.7,20.1,2.2c6.1,1.4,11.3,3.7,15.7,6.8
		c4.4,3.1,7.8,7.2,10.2,12.4c2.4,5.1,3.7,11.3,3.7,18.6L811,194.6L811,194.6L811,194.6z M789.8,153c-1.3-0.2-3.6-0.6-7-1.1
		c-3.4-0.5-8.6-0.7-15.5-0.7c-8.5,0-14.7,1.3-18.6,3.8c-3.9,2.6-5.8,6.6-5.8,12.1c0,2.2,0.4,4.3,1.2,6.2c0.8,1.9,2.2,3.5,4.2,4.8
		c2,1.3,4.7,2.3,8.2,3c3.4,0.7,7.7,1,12.8,1c5.7,0,10.3-0.2,13.7-0.7c3.4-0.4,5.6-0.8,6.7-1L789.8,153L789.8,153z"/>
	<path class="st7" d="M874,87.6c0-2.6,0.4-4.9,1.1-6.8c0.7-1.9,1.6-3.5,2.8-4.8c1.1-1.3,2.5-2.2,4-2.9c1.5-0.7,3-1.1,4.6-1.3
		c1.2-0.2,2.6-0.5,4.2-0.7c1.6-0.2,3.7-0.4,6.1-0.6c2.5-0.2,5.5-0.3,9-0.4c3.5-0.1,7.8-0.2,12.9-0.2c10.8,0,19.8,1.2,27,3.5
		c7.2,2.3,13,5.5,17.4,9.4c4.4,4,7.5,8.5,9.4,13.6c1.9,5.1,2.8,10.4,2.8,15.9c0,7.3-1.5,13.9-4.5,19.7c-3,5.8-7.9,10.6-14.7,14.3
		c1.8,2.9,3.8,6.2,5.9,10.1c2.2,3.8,4.4,7.9,6.7,12.1c2.3,4.3,4.6,8.7,6.9,13.2c2.3,4.6,4.4,9,6.5,13.3h-34.3
		c-0.6-1.3-1.7-3.8-3.3-7.5c-1.6-3.7-3.5-7.6-5.6-11.9c-2.1-4.3-4.3-8.4-6.5-12.5c-2.2-4.1-4.1-7.3-5.7-9.5
		c-1.7,0.2-3.4,0.4-5.1,0.4c-1.7,0-3.6,0-5.5,0c-0.7,0-1.7,0-3-0.1c-1.3-0.1-2.5-0.1-3.9-0.2c-1.3-0.1-2.5-0.1-3.6-0.2
		c-1.1-0.1-1.8-0.1-2.2-0.3V195H874L874,87.6L874,87.6z M903.3,127.7c0.4,0,0.9,0.1,1.5,0.2c0.7,0.1,1.6,0.2,2.8,0.4
		c1.2,0.1,2.7,0.2,4.6,0.3c1.9,0.1,4.2,0.1,6.9,0.1c5.2,0,9.4-0.4,12.7-1.3c3.3-0.9,5.9-2.1,7.7-3.6c1.9-1.5,3.1-3.2,3.8-5.2
		c0.7-2,1-4,1-6c0-1.9-0.3-3.9-0.9-5.8c-0.6-2-1.8-3.8-3.7-5.5c-1.9-1.7-4.5-3.1-8-4.1c-3.5-1.1-8.1-1.6-13.8-1.6
		c-4.2,0-7.5,0.1-10,0.3c-2.5,0.2-4,0.3-4.6,0.4L903.3,127.7C903.3,127.7,903.3,127.7,903.3,127.7z"/>
	<path class="st7" d="M998.1,87.6c0-2.6,0.4-4.9,1.1-6.8c0.7-1.9,1.6-3.5,2.8-4.8c1.1-1.3,2.5-2.2,4-2.9c1.5-0.7,3-1.1,4.6-1.3
		c2.3-0.5,5.6-0.9,10-1.3c4.4-0.4,10.8-0.6,19.3-0.6c11.1,0,21.2,1.4,30.3,4.1c9,2.8,16.8,6.8,23.2,12.2c6.4,5.4,11.4,12,14.8,19.9
		c3.5,7.9,5.2,16.9,5.2,27.1c0,10.1-1.6,19-4.9,26.9c-3.2,7.9-8.1,14.5-14.5,20c-6.4,5.5-14.4,9.6-23.9,12.5
		c-9.5,2.9-20.6,4.3-33.2,4.3c-13.5,0-23.3-0.3-29.2-0.8c-5.9-0.5-9.1-0.9-9.6-1L998.1,87.6L998.1,87.6z M1028.1,168.4
		c0.7,0.1,2.3,0.3,4.8,0.4c2.5,0.2,5.4,0.3,8.9,0.3c6,0,11.4-0.7,16.4-2.1c4.9-1.4,9.1-3.5,12.7-6.5c3.5-2.9,6.3-6.7,8.2-11.2
		c1.9-4.6,2.9-9.9,2.9-16.2c0-5.3-0.8-10.1-2.3-14.6c-1.6-4.4-3.9-8.3-7.1-11.5c-3.2-3.2-7.2-5.8-12-7.6c-4.9-1.8-10.6-2.7-17.2-2.7
		c-4.7,0-8.3,0.1-10.8,0.3c-2.5,0.2-4,0.3-4.3,0.4L1028.1,168.4L1028.1,168.4L1028.1,168.4z"/>
</g>
<g>
	<path class="st8" d="M140.2,203.4L140.2,203.4L140.2,203.4z"/>
	
		<linearGradient id="SVGID_6_" gradientUnits="userSpaceOnUse" x1="1.2363" y1="330.3269" x2="261.5374" y2="330.3269" gradientTransform="matrix(1 0 0 -1 0 472.3937)">
		<stop  offset="0.5306" style="stop-color:#299137"/>
		<stop  offset="1" style="stop-color:#1F7031"/>
	</linearGradient>
	<path class="st9" d="M251.5,102.9l-43.5,25.1l-1.7,1l-9.4,5.4l0,0l-0.2,0.1c-6.6,3.8-15.4,6.1-24.9,6.4c-0.1,0-0.2,0-0.3,0
		c-0.7,0-1.3,0-2,0c-0.7,0-1.3,0-2,0c-0.1,0-0.2,0-0.3,0c-9.4-0.3-18.3-2.6-24.9-6.4l-0.2-0.1l0,0l-16.3-9.4l-36.6-21.1l-11.9-6.8
		L46.6,79.4L28.8,69.1l-17-9.8c0,0,0,0,0,0c-6.2-3.8-9.9-8.7-10.5-14l-0.1,0v140c0,0,0,0,0,0c0,0.1,0,0.2,0,0.3
		c-0.1,5.8,3.8,11.4,10.6,15.6c0,0,0,0,0,0l4.1,2.4l12.8,7.4l17.8,10.3l30.7,17.7V168l48.4,28l16.3,9.4c4.7,2.7,10.5,4.7,17.3,5.8
		c13.8,2.2,27.8-0.3,37.3-5.7l3.5-2l0,0l4.8-2.8l24-13.8l22.6-13l10.1-5.8V97.1L251.5,102.9z"/>
	<path class="st7" d="M251.5,91.3l-82-47.4L108.4,8.7l-4.3-2.4c0,0,0,0,0,0c-4.6-2.5-10.2-4.4-16.7-5.5C73.9-1.3,60.3,0.9,50.9,6
		c0,0,0,0,0,0l-4.2,2.4L22.8,22.2l-9.6,5.5c0,0,0,0,0,0c-5,2.7-8.8,6.3-10.7,10.4c-1.1,2.4-1.5,4.8-1.2,7.1
		c0.6,5.3,4.4,10.2,10.5,14c0,0,0,0,0,0l17,9.8l17.8,10.3l30.7,17.7l10.1,5.8l1.8,1l41.8,24.1l11.1,6.4c1.7,1,3.7,1.9,5.7,2.7
		c3.5,1.3,7.4,2.4,11.6,3.1c2.6,0.4,5.2,0.6,7.7,0.7c0.1,0,0.2,0,0.3,0c0.7,0,1.3,0,2,0c0.7,0,1.3,0,2,0c0.1,0,0.2,0,0.3,0
		c2.6-0.1,5.1-0.3,7.7-0.7c3.4-0.5,6.6-1.3,9.5-2.3c0.7-0.2,1.4-0.5,2.1-0.8c2.1-0.8,4-1.7,5.7-2.7l11.1-6.4l41.8-24.1l1.8-1
		l10.1-5.8L251.5,91.3z"/>
	
		<linearGradient id="SVGID_7_" gradientUnits="userSpaceOnUse" x1="67.5399" y1="506.5981" x2="201.219" y2="730.8337" gradientTransform="matrix(1 0 0 1 0 -541.347)">
		<stop  offset="0" style="stop-color:#FFFFFF;stop-opacity:0.2"/>
		<stop  offset="1" style="stop-color:#FFFFFF;stop-opacity:0"/>
	</linearGradient>
	<path class="st10" d="M251.5,91.3l-82-47.4L108.4,8.7l-4.3-2.4c0,0,0,0,0,0c-4.6-2.5-10.2-4.4-16.7-5.5C73.9-1.3,60.3,0.9,50.9,6
		c0,0,0,0,0,0l-4.2,2.4L22.8,22.2l-9.6,5.5c0,0,0,0,0,0c-5,2.7-8.8,6.3-10.7,10.4c-1.1,2.4-1.5,4.8-1.2,7.1
		c0.6,5.3,4.4,10.2,10.5,14c0,0,0,0,0,0l17,9.8l17.8,10.3l30.7,17.7l10.1,5.8l1.8,1l41.8,24.1l11.1,6.4c1.7,1,3.7,1.9,5.7,2.7
		c3.5,1.3,7.4,2.4,11.6,3.1c2.6,0.4,5.2,0.6,7.7,0.7c0.1,0,0.2,0,0.3,0c0.7,0,1.3,0,2,0c0.7,0,1.3,0,2,0c0.1,0,0.2,0,0.3,0
		c2.6-0.1,5.1-0.3,7.7-0.7c3.4-0.5,6.6-1.3,9.5-2.3c0.7-0.2,1.4-0.5,2.1-0.8c2.1-0.8,4-1.7,5.7-2.7l11.1-6.4l41.8-24.1l1.8-1
		l10.1-5.8L251.5,91.3z"/>
</g>
<circle class="st7" cx="843.3" cy="183.2" r="14"/>
</svg>
