<?xml version="1.0" encoding="utf-8"?>
<!-- Generator: Adobe Illustrator 23.0.4, SVG Export Plug-In . SVG Version: 6.00 Build 0)  -->
<svg version="1.1" id="Vrstva_1" xmlns="http://www.w3.org/2000/svg" xmlns:xlink="http://www.w3.org/1999/xlink" x="0px" y="0px"
	 viewBox="0 0 141.732 141.732" style="enable-background:new 0 0 141.732 141.732;" xml:space="preserve">
<style type="text/css">
	.st0{fill:#FFFFFF;}
</style>
<g>
	<path class="st0" d="M135.846,32.511c-0.826-1.8-2.426-3.397-4.63-4.628c-0.033-0.022-0.067-0.044-0.103-0.064l-14.272-8.24
		c-0.056-0.032-0.113-0.061-0.172-0.086c-4.015-2.136-9.516-2.922-14.75-2.104c-2.533,0.396-4.887,1.161-6.814,2.213
		c-0.033,0.016-0.066,0.034-0.099,0.052l-1.627,0.929L71.045,33.478L48.703,20.579l-1.62-0.925
		c-0.032-0.018-0.065-0.036-0.098-0.052c-1.926-1.052-4.28-1.817-6.814-2.213c-5.233-0.818-10.734-0.031-14.749,2.104
		c-0.058,0.025-0.116,0.054-0.172,0.086l-14.273,8.24c-0.035,0.02-0.069,0.041-0.102,0.064c-2.206,1.231-3.806,2.829-4.632,4.629
		c-0.474,1.033-0.683,2.1-0.628,3.178c-0.007,0.06-0.012,0.121-0.012,0.183v53.095c0,0.044,0.002,0.087,0.005,0.13
		c-0.022,2.703,1.673,5.317,4.663,7.199c0.054,0.041,0.11,0.078,0.169,0.112l49.388,28.514c1.988,1.149,4.46,1.979,7.149,2.4
		c0.211,0.033,0.424,0.064,0.637,0.091c0.083,0.011,0.166,0.018,0.249,0.028c0.096,0.012,0.192,0.022,0.288,0.033
		c0.233,0.026,0.466,0.048,0.7,0.068c0.091,0.008,0.183,0.016,0.274,0.022c0.257,0.019,0.515,0.033,0.773,0.045
		c0.066,0.003,0.131,0.007,0.197,0.01c0.329,0.012,0.659,0.02,0.989,0.02c0.022,0,0.044,0,0.067,0c0.004,0,0.008-0.001,0.012-0.001
		c4.13-0.013,8.043-0.961,11.022-2.673l24.616-14.213c0.014-0.008,0.028-0.017,0.042-0.025l24.804-14.32
		c0.059-0.034,0.115-0.071,0.168-0.112c2.993-1.884,4.689-4.501,4.664-7.2L135.846,32.511z M95.017,23.432l1.547-0.883
		c0.018-0.009,0.037-0.019,0.054-0.029c1.609-0.89,3.618-1.542,5.809-1.884c4.533-0.709,9.438-0.014,12.801,1.814
		c0.03,0.016,0.06,0.031,0.09,0.045l14.017,8.093c0.053,0.037,0.108,0.072,0.165,0.103c1.651,0.899,2.812,2.003,3.358,3.192
		c0,0,0,0,0,0c0.277,0.603,0.385,1.217,0.321,1.822c0,0.002-0.001,0.004-0.001,0.006c-0.099,0.909-0.581,1.817-1.397,2.656
		c-0.49,0.504-1.099,0.984-1.817,1.425c-0.03,0.018-0.059,0.038-0.088,0.058L105.98,53.647L74.332,35.375L95.017,23.432z
		 M9.231,33.883c0.545-1.189,1.707-2.293,3.358-3.192c0.057-0.031,0.112-0.065,0.164-0.102l14.019-8.093
		c0.03-0.014,0.06-0.029,0.09-0.045c3.363-1.828,8.268-2.523,12.801-1.814c2.193,0.343,4.201,0.995,5.808,1.884
		c0.018,0.01,0.036,0.02,0.055,0.029l1.54,0.879l54.27,31.333c0,0,0,0,0,0l1.356,0.783l-1.357,0.784
		c-0.001,0.001-0.002,0.001-0.003,0.002L80.618,68.29c-0.001,0-0.002,0.001-0.003,0.001c-0.006,0.004-0.013,0.007-0.019,0.01
		c-0.257,0.148-0.528,0.287-0.806,0.423c-0.082,0.04-0.165,0.079-0.249,0.118c-0.09,0.042-0.185,0.079-0.277,0.119
		c-0.154,0.067-0.305,0.136-0.463,0.2c-0.064,0.026-0.126,0.054-0.191,0.079c-0.05,0.019-0.103,0.037-0.153,0.056
		c-0.192,0.072-0.386,0.143-0.585,0.209c-0.078,0.026-0.159,0.049-0.239,0.074c-0.173,0.055-0.345,0.11-0.522,0.161
		c-0.006,0.002-0.013,0.004-0.019,0.006c-0.092,0.026-0.187,0.049-0.28,0.074c-0.172,0.046-0.344,0.094-0.52,0.136
		c-0.16,0.038-0.324,0.072-0.487,0.107c-0.114,0.024-0.226,0.052-0.341,0.074c-0.283,0.056-0.569,0.107-0.859,0.152
		c-0.426,0.067-0.859,0.12-1.297,0.163c-0.054,0.005-0.109,0.009-0.163,0.014c-0.427,0.039-0.859,0.069-1.298,0.085l-0.09,0.002
		c-0.034,0.001-0.066,0.002-0.099,0.003c-0.168,0.005-0.335,0.007-0.502,0.008c-0.097,0-0.195,0-0.294-0.001
		c-0.117-0.001-0.233-0.003-0.348-0.006c-0.067-0.002-0.132-0.003-0.201-0.005c-0.002,0-0.045-0.001-0.046-0.001l-0.048-0.001
		c-0.921-0.034-1.841-0.122-2.734-0.262c-0.335-0.052-0.664-0.113-0.988-0.179c-0.092-0.019-0.183-0.04-0.274-0.06
		c-0.229-0.05-0.455-0.103-0.678-0.159c-0.108-0.027-0.215-0.055-0.322-0.084c-0.22-0.06-0.436-0.124-0.65-0.19
		c-0.087-0.027-0.175-0.052-0.261-0.08c-0.291-0.095-0.577-0.196-0.856-0.304c-0.043-0.016-0.083-0.035-0.125-0.052
		c-0.258-0.103-0.508-0.212-0.753-0.325c-0.034-0.016-0.068-0.03-0.102-0.046c-0.055-0.026-0.11-0.051-0.164-0.077
		c-0.29-0.141-0.573-0.286-0.839-0.44l-4.201-2.426c0,0,0,0,0,0l-3.112-1.797L12.216,39.852c-0.029-0.02-0.058-0.04-0.089-0.059
		c-1.916-1.177-3.058-2.626-3.215-4.082c0-0.002-0.001-0.005-0.001-0.007C8.846,35.099,8.954,34.486,9.231,33.883z M36.736,80.918
		c-0.468-0.193-1.003-0.161-1.448,0.096c-0.508,0.293-0.822,0.836-0.822,1.423v24.047L12.214,93.637
		c-0.028-0.02-0.058-0.039-0.087-0.058c-2.059-1.265-3.234-2.88-3.232-4.443c0.003-0.039,0.006-0.078,0.007-0.117
		c0.003-0.084-0.001-0.168-0.012-0.251V41.516c0.007,0.006,0.015,0.012,0.023,0.018c0.183,0.15,0.375,0.296,0.572,0.44
		c0.044,0.032,0.089,0.064,0.133,0.096c0.211,0.15,0.426,0.297,0.652,0.439c0.054,0.041,0.111,0.079,0.17,0.113l27.035,15.609
		l1.634,0.943c0,0,0,0,0,0L59.83,71.137c0.002,0.001,0.005,0.003,0.007,0.004l0.071,0.041c0.027,0.016,0.057,0.029,0.084,0.044
		c0.266,0.149,0.54,0.294,0.822,0.432c0.127,0.063,0.256,0.123,0.386,0.183c0.212,0.098,0.429,0.192,0.649,0.284
		c0.214,0.089,0.432,0.174,0.653,0.257c2.273,0.851,4.88,1.361,7.591,1.453l0.141,0.004c0.271,0.008,0.548,0.014,0.808,0.013
		c0.008,0,0.016,0,0.025,0c0.001,0,0.001,0,0.002,0c0.13,0,0.259-0.001,0.388-0.004c0.042-0.001,0.085-0.002,0.128-0.003
		c0.044-0.001,0.089-0.001,0.133-0.002c0.036-0.001,0.074-0.002,0.111-0.003c0.009,0,0.019,0,0.028,0
		c0.009,0,0.035-0.001,0.044-0.001l0.078-0.002h0.003c0,0,0.001,0,0.001,0l0.007,0c0.001,0,0.001,0,0.002,0c0.001,0,0.001,0,0.002,0
		c0.003,0,0.007-0.001,0.01-0.001c1.053-0.036,2.087-0.14,3.095-0.296c0.002,0,0.004,0,0.006-0.001c0.003,0,0.006-0.001,0.009-0.001
		c0.026-0.004,0.051-0.009,0.077-0.014c0.58-0.092,1.148-0.204,1.705-0.334c0.065-0.015,0.131-0.029,0.196-0.044
		c0.009-0.002,0.018-0.005,0.027-0.007c0.257-0.062,0.51-0.129,0.761-0.199c0.051-0.014,0.102-0.028,0.153-0.042
		c0.059-0.017,0.117-0.036,0.176-0.054c0.252-0.075,0.504-0.15,0.75-0.233c0.007-0.002,0.014-0.005,0.021-0.007
		c0.003-0.001,0.005-0.002,0.008-0.003c0.426-0.144,0.839-0.301,1.242-0.468c0.013-0.005,0.025-0.01,0.038-0.016
		c0.086-0.036,0.173-0.071,0.258-0.108c0.125-0.054,0.247-0.111,0.37-0.168c0.004-0.002,0.008-0.004,0.013-0.006
		c0.114-0.053,0.228-0.105,0.34-0.16c0.091-0.044,0.18-0.09,0.269-0.135c0.062-0.032,0.126-0.062,0.188-0.095
		c0.137-0.072,0.269-0.146,0.402-0.221c0.027-0.015,0.057-0.029,0.084-0.044l22.146-12.785v23.096l-22.46,12.967
		c-0.003,0.002-0.007,0.004-0.01,0.006l-1.322,0.764c-3.374,1.939-8.378,2.689-13.06,1.957c-1.923-0.301-3.692-0.838-5.183-1.563
		c-0.285-0.139-0.563-0.282-0.827-0.434L36.933,81.015C36.869,80.978,36.803,80.946,36.736,80.918z M133.2,88.761
		c-0.011,0.085-0.015,0.171-0.012,0.258c0.001,0.038,0.004,0.077,0.007,0.119c0.005,1.558-1.171,3.175-3.232,4.441
		c-0.03,0.018-0.059,0.037-0.087,0.057l-24.719,14.271c-0.014,0.008-0.029,0.017-0.043,0.026l-24.569,14.186
		c-2.455,1.411-5.882,2.225-9.403,2.234c-0.308,0-0.615-0.006-0.92-0.017c-0.007,0-0.013-0.001-0.02-0.001
		c-0.28-0.011-0.559-0.027-0.837-0.047c-0.052-0.004-0.104-0.008-0.156-0.012c-0.232-0.018-0.464-0.041-0.695-0.066
		c-0.07-0.008-0.14-0.015-0.209-0.023c-0.274-0.033-0.547-0.069-0.819-0.111c-1.432-0.224-2.781-0.577-3.991-1.043
		c-0.727-0.279-1.403-0.599-2.019-0.954l-23.721-13.695V85.285l22.074,12.744c0.497,0.287,1.025,0.555,1.578,0.801
		c1.66,0.738,3.555,1.284,5.572,1.599c5.468,0.854,11.152-0.025,15.208-2.356l1.314-0.759c0.004-0.002,0.008-0.004,0.012-0.007
		l23.29-13.446c0.508-0.294,0.822-0.836,0.822-1.423V56.493l24.025-13.87c0.059-0.034,0.115-0.071,0.168-0.112
		c0.003-0.002,0.005-0.003,0.007-0.005c0.218-0.137,0.426-0.279,0.63-0.424c0.056-0.04,0.112-0.08,0.167-0.12
		c0.18-0.132,0.356-0.266,0.524-0.403c0.017-0.014,0.037-0.027,0.054-0.042V88.761z"/>
</g>
</svg>
