<?xml version="1.0" encoding="utf-8"?>
<!-- Generator: Adobe Illustrator 23.0.4, SVG Export Plug-In . SVG Version: 6.00 Build 0)  -->
<svg version="1.1" id="Vrstva_1" xmlns="http://www.w3.org/2000/svg" xmlns:xlink="http://www.w3.org/1999/xlink" x="0px" y="0px"
	 viewBox="0 0 54.585 54.539" style="enable-background:new 0 0 54.585 54.539;" xml:space="preserve">
<style type="text/css">
	.st0{fill:#FFFFFF;}
</style>
<path class="st0" d="M27.293,0C12.243,0,0,12.243,0,27.292c0,15.049,12.243,27.293,27.293,27.293
	c15.049,0,27.292-12.243,27.292-27.293C54.585,12.243,42.342,0,27.293,0z M43.634,31.673c0,3.871-3.138,7.009-7.009,7.009H18.447
	c-3.871,0-7.009-3.138-7.009-7.009v-8.52c0-3.871,3.138-7.009,7.009-7.009h18.179c3.871,0,7.009,3.138,7.009,7.009V31.673z"/>
<path class="st0" d="M24.924,22.83c-0.315-0.18-0.607,0.048-0.607,0.411v8.162c0,0.358,0.283,0.586,0.599,0.416l7.25-3.976
	c0.326-0.177,0.381-0.643,0.059-0.827L24.924,22.83z"/>
</svg>
