<?xml version="1.0" encoding="utf-8"?>
<!-- Generator: Adobe Illustrator 23.0.4, SVG Export Plug-In . SVG Version: 6.00 Build 0)  -->
<svg version="1.1" id="Vrstva_1" xmlns="http://www.w3.org/2000/svg" xmlns:xlink="http://www.w3.org/1999/xlink" x="0px" y="0px"
	 viewBox="0 0 54.585 54.539" style="enable-background:new 0 0 54.585 54.539;" xml:space="preserve">
<style type="text/css">
	.st0{fill:#FFFFFF;}
</style>
<g>
	<path class="st0" d="M27.292,0C12.243,0,0,12.243,0,27.293c0,15.049,12.243,27.292,27.292,27.292
		c15.05,0,27.293-12.243,27.293-27.292C54.585,12.243,42.342,0,27.292,0z M43.098,17.36c0,0.082,0.01,0.282-0.157,0.507
		c-0.744,1.001-1.536,1.897-2.533,2.646c-0.145,0.109-0.388,0.222-0.388,0.428c0,5.257-1.343,10.507-5.175,14.314
		c-4.879,4.848-12.199,6.167-18.698,4.372c-1.258-0.348-2.462-0.835-3.616-1.446c-0.383-0.209-0.758-0.424-1.127-0.668
		c-0.094-0.076-0.163-0.145-0.083-0.194c0.079-0.04,0.14-0.043,0.431,0c1.818,0.179,3.69-0.091,5.41-0.692
		c0.946-0.33,2.976-0.995,3.562-1.888c0.013-0.021,0.028-0.021,0.042-0.042c-0.237-0.056-0.474-0.056-0.71-0.097
		c-1.766-0.505-4.123-1.39-5.216-4.367c-0.069-0.174,0-0.264,0.181-0.229c1.454,0.114,1.975,0.034,2.482-0.077
		c-0.285-0.048-0.577-0.146-0.841-0.257c-2.225-0.846-3.849-3.016-4.145-5.362c-0.034-0.271-0.056-0.501-0.042-0.751
		c0.014-0.174,0.091-0.229,0.244-0.133c1.144,0.592,2.427,0.731,2.531,0.709c-0.285-0.222-0.549-0.466-0.806-0.709
		c-1.928-1.827-2.677-5.544-1.134-7.858c0.125-0.188,0.209-0.188,0.362-0.013c3.528,4.02,7.873,5.896,13.116,6.676
		c0.139,0.021,0.152,0,0.132-0.153c-0.136-0.924-0.155-1.827,0.069-2.741c0.231-0.946,0.684-1.84,1.296-2.596
		c0.593-0.731,1.336-1.337,2.17-1.773c0.832-0.435,1.753-0.699,2.69-0.76c0.964-0.063,1.941,0.092,2.836,0.457
		c0.681,0.278,1.286,0.654,1.849,1.133c0.118,0.098,0.222,0.216,0.333,0.341c0.07,0.07,0.152,0.098,0.263,0.07
		c1.34-0.335,2.599-0.808,3.817-1.461c0.055-0.028,0.101-0.042,0.17-0.014c0.055,0.042,0.034,0.112,0.007,0.167
		c-0.218,0.711-0.605,1.37-1.07,1.949c-0.305,0.379-1.068,1.316-1.586,1.403c1.09-0.183,2.203-0.461,3.213-0.918
		c0.129-0.059,0.119-0.084,0.119,0C43.098,17.332,43.098,17.346,43.098,17.36z"/>
</g>
</svg>
