<?xml version="1.0" encoding="utf-8"?>
<!-- Generator: Adobe Illustrator 23.0.4, SVG Export Plug-In . SVG Version: 6.00 Build 0)  -->
<svg version="1.1" id="Vrstva_1" xmlns="http://www.w3.org/2000/svg" xmlns:xlink="http://www.w3.org/1999/xlink" x="0px" y="0px"
	 viewBox="0 0 54.585 54.585" style="enable-background:new 0 0 54.585 54.585;" xml:space="preserve">
<style type="text/css">
	.st0{fill:#FFFFFF;}
</style>
<path class="st0" d="M27.293,0C12.243,0,0,12.243,0,27.293c0,15.049,12.243,27.292,27.293,27.292
	c15.049,0,27.292-12.243,27.292-27.292C54.585,12.243,42.342,0,27.293,0z M34.863,16.189c0,0.228-0.184,0.412-0.412,0.412h-3.282
	c-0.805,0-1.458,0.653-1.458,1.458v3.437h4.668c0.241,0,0.431,0.206,0.411,0.447l-0.41,4.844c-0.018,0.213-0.196,0.377-0.41,0.377
	h-4.259V43.24c0,0.227-0.184,0.412-0.412,0.412h-5.874c-0.228,0-0.412-0.184-0.412-0.412V27.421v-0.258h-2.937
	c-0.228,0-0.412-0.184-0.412-0.412v-4.844c0-0.228,0.184-0.412,0.412-0.412h2.937v-4.67c0-3.255,2.638-5.893,5.893-5.893h5.546
	c0.228,0,0.412,0.185,0.412,0.412V16.189z"/>
</svg>
