<?xml version="1.0" encoding="utf-8"?>
<!-- Generator: Adobe Illustrator 23.0.4, SVG Export Plug-In . SVG Version: 6.00 Build 0)  -->
<svg version="1.1" id="Vrstva_1" xmlns="http://www.w3.org/2000/svg" xmlns:xlink="http://www.w3.org/1999/xlink" x="0px" y="0px"
	 viewBox="0 0 54.585 54.539" style="enable-background:new 0 0 54.585 54.539;" xml:space="preserve">
<style type="text/css">
	.st0{fill:#FFFFFF;}
</style>
<path class="st0" d="M27.293-0.023C12.243-0.023,0,12.22,0,27.269c0,15.049,12.243,27.293,27.293,27.293
	s27.292-12.243,27.292-27.293C54.585,12.22,42.342-0.023,27.293-0.023z M28.581,42.459c-2.71,0-5.38-0.67-7.761-1.944l-6.897,1.892
	c-0.126,0.035-0.254,0.051-0.381,0.051c-0.415,0-0.817-0.18-1.095-0.505c-0.362-0.425-0.446-1.02-0.215-1.529l2.503-5.514
	c-1.725-2.664-2.632-5.734-2.632-8.93c0-9.086,7.392-16.478,16.478-16.478s16.478,7.392,16.478,16.478
	C45.059,35.067,37.667,42.459,28.581,42.459z"/>
<path class="st0" d="M28.581,12.381c-7.499,0-13.6,6.101-13.6,13.6c0,2.872,0.887,5.619,2.566,7.946
	c0.302,0.419,0.357,0.967,0.143,1.437l-1.569,3.457l4.506-1.236c0.125-0.034,0.253-0.051,0.381-0.051
	c0.252,0,0.503,0.067,0.726,0.196c2.073,1.211,4.441,1.852,6.848,1.852c7.499,0,13.6-6.101,13.6-13.6
	C42.181,18.482,36.08,12.381,28.581,12.381z M36.665,31.252c-0.506,1.228-1.762,2.017-3.037,2.259
	c-1.218,0.231-2.222-0.157-3.349-0.529c-1.005-0.332-1.976-0.816-2.877-1.368c-1.804-1.105-3.362-2.583-4.614-4.284
	c-0.383-0.52-0.738-1.061-1.064-1.618c-0.433-0.739-0.818-1.516-1.019-2.348c-0.084-0.346-0.128-0.704-0.132-1.062
	c-0.014-1.262,0.467-2.535,1.465-3.347c0.578-0.471,1.433-0.676,2.082-0.309c0.706,0.399,1.071,1.403,1.398,2.108
	c0.256,0.551,0.546,1.275,0.441,1.895c-0.106,0.62-0.595,1.141-0.986,1.601c-0.264,0.31-0.303,0.574-0.084,0.909
	c1.292,2.153,3.086,3.716,5.427,4.649c0.318,0.128,0.566,0.088,0.773-0.168c0.404-0.499,0.802-1.475,1.426-1.73
	c0.813-0.333,1.711,0.128,2.401,0.541c0.642,0.384,1.718,0.856,1.891,1.65C36.89,30.483,36.815,30.889,36.665,31.252z"/>
</svg>
