<?xml version="1.0" encoding="utf-8"?>
<!-- Generator: Adobe Illustrator 23.0.4, SVG Export Plug-In . SVG Version: 6.00 Build 0)  -->
<svg version="1.1" id="Vrstva_1" xmlns="http://www.w3.org/2000/svg" xmlns:xlink="http://www.w3.org/1999/xlink" x="0px" y="0px"
	 viewBox="0 0 54.585 54.539" style="enable-background:new 0 0 54.585 54.539;" xml:space="preserve">
<style type="text/css">
	.st0{fill:#FFFFFF;}
</style>
<path class="st0" d="M27.247,0.046C12.222,0.046,0,12.269,0,27.293c0,15.024,12.222,27.246,27.247,27.246
	c15.023,0,27.246-12.223,27.246-27.246C54.493,12.269,42.27,0.046,27.247,0.046z M20.432,39.541c0,0.251-0.204,0.455-0.455,0.455
	h-5.25c-0.251,0-0.455-0.204-0.455-0.455V21.917c0-0.251,0.204-0.455,0.455-0.455h5.25c0.251,0,0.455,0.204,0.455,0.455V39.541z
	 M17.167,19.104c-1.822,0-3.299-1.477-3.299-3.299s1.477-3.299,3.299-3.299s3.298,1.477,3.298,3.299S18.989,19.104,17.167,19.104z
	 M42.65,39.541c0,0.251-0.204,0.455-0.455,0.455h-5.252c-0.251,0-0.455-0.204-0.455-0.455v-9.461c0-2.49-0.89-4.19-3.121-4.19
	c-1.703,0-2.714,1.145-3.161,2.253c-0.162,0.396-0.204,0.946-0.204,1.502v9.896c0,0.251-0.204,0.455-0.455,0.455h-5.25
	c-0.252,0-0.456-0.203-0.455-0.455c0.012-2.519,0.065-14.744,0.011-17.618c-0.005-0.254,0.2-0.461,0.455-0.461h5.24
	c0.251,0,0.455,0.204,0.455,0.455v2.171c0.819-1.26,2.279-3.062,5.554-3.062c4.054,0,7.094,2.649,7.094,8.341V39.541z"/>
<path class="st0" d="M30.002,24.149v-0.061c-0.012,0.021-0.03,0.041-0.041,0.061H30.002z"/>
</svg>
