<?xml version="1.0" encoding="utf-8"?>
<!-- Generator: Adobe Illustrator 23.0.3, SVG Export Plug-In . SVG Version: 6.00 Build 0)  -->
<svg version="1.1" id="Vrstva_1" xmlns="http://www.w3.org/2000/svg" xmlns:xlink="http://www.w3.org/1999/xlink" x="0px" y="0px"
	 viewBox="0 0 141.7 141.7" style="enable-background:new 0 0 141.7 141.7;" xml:space="preserve">
<style type="text/css">
	.st0{fill:#44A335;}
</style>
<path class="st0" d="M113.8,35.1c-1,0-1.7,0.8-1.7,1.7v13c-3.2-1.1-9.8-2.5-21.3-2.5C77,47.2,64.1,55,58.5,58.8V43.5v-5.4
	c2.8-2.3,15.8-12.4,32.3-12.4c5.2,0,9.8,0.2,13.5,0.7c0.9,0.1,1.8-0.5,1.9-1.5c0.1-0.9-0.5-1.8-1.5-1.9c-3.9-0.5-8.6-0.8-14-0.8
	c-19.9,0-34.5,13.2-35.2,13.7c-0.4,0.3-0.6,0.8-0.6,1.3v6.2v18.7v35.6c-2.8-2.2-7-3.4-12.2-3.4c-11.1,0-22.6,5.6-26.1,12.7
	c-1.4,2.9-1.4,5.9,0.2,8.4c2.3,3.7,7.6,5.9,14.4,5.9c11.1,0,22.6-5.6,26.1-12.7c0.6-1.2,0.9-2.3,1-3.5c0-0.1,0-0.3,0-0.4V63.1
	c3.1-2.4,17.5-12.4,32.3-12.4c13,0,19.2,1.9,21.3,2.8v32.5c-2.8-2.2-7-3.4-12.2-3.4c-11.1,0-22.6,5.6-26.1,12.7
	c-1.4,2.9-1.4,5.9,0.2,8.4c2.3,3.7,7.6,5.9,14.4,5.9c11.1,0,22.6-5.6,26.1-12.7c0.6-1.2,0.9-2.3,1-3.5c0-0.1,0-0.3,0-0.4V52.3V36.8
	C115.6,35.8,114.8,35.1,113.8,35.1z M54.4,107.2c-2.8,5.8-13.4,10.7-23,10.7c-5.5,0-9.9-1.6-11.5-4.2c-0.9-1.5-0.9-3.1,0-5
	c2.8-5.8,13.4-10.7,23-10.7c5.5,0,9.9,1.6,11.5,4.2c0.4,0.7,0.7,1.5,0.7,2.3v0C55,105.4,54.8,106.2,54.4,107.2z M111.4,95.2
	c-2.8,5.8-13.4,10.7-23,10.7c-5.5,0-9.9-1.6-11.5-4.2c-0.9-1.5-0.9-3.1,0-5c2.8-5.8,13.4-10.7,23-10.7c5.5,0,9.9,1.6,11.5,4.2
	c0.4,0.7,0.7,1.5,0.7,2.3v0C112.1,93.4,111.9,94.3,111.4,95.2z"/>
</svg>
