<?xml version="1.0" encoding="utf-8"?>
<!-- Generator: Adobe Illustrator 23.0.3, SVG Export Plug-In . SVG Version: 6.00 Build 0)  -->
<svg version="1.1" id="Vrstva_1" xmlns="http://www.w3.org/2000/svg" xmlns:xlink="http://www.w3.org/1999/xlink" x="0px" y="0px"
	 viewBox="0 0 141.7 141.7" style="enable-background:new 0 0 141.7 141.7;" xml:space="preserve">
<style type="text/css">
	.st0{fill:#44A335;}
</style>
<g>
	<path class="st0" d="M107.2,96.3c-0.8-0.4-1.8-0.1-2.2,0.7c-0.4,0.8-0.1,1.8,0.7,2.2c3.3,1.7,5.2,3.5,5.2,5.2
		c0,5.5-17.6,13.7-42,13.7c-24.4,0-42-8.2-42-13.7c0-1.6,1.7-3.3,4.7-4.9c0.8-0.4,1.1-1.4,0.7-2.2c-0.4-0.8-1.4-1.1-2.2-0.7
		c-4.3,2.3-6.4,4.9-6.4,7.8c0,8.9,21.6,17,45.3,17c23.7,0,45.3-8.1,45.3-17C114.2,101.3,111.8,98.6,107.2,96.3z"/>
	<path class="st0" d="M116.9,64.8c-1.3-2.5-3.2-4-5.5-4.4c-3.3-0.5-6.7,1.4-8.8,2.9c-0.1-0.5-0.3-1-0.5-1.6
		c-0.5-6.5-17.5-9.5-33.3-9.5c-0.9,0-1.7,0.7-1.7,1.7c0,0.9,0.7,1.7,1.7,1.7c19.4,0,30,4.3,30,6.5c0,2.2-10.6,6.5-30,6.5
		c-19.4,0-30-4.3-30-6.5c0-1,3-3.3,11.1-4.9c0.9-0.2,1.5-1,1.3-1.9c-0.2-0.9-1-1.5-1.9-1.3c-6.1,1.2-13.3,3.5-13.8,7.7
		c-1.3,2.9-2.6,9.5-2.6,13.1c0,23.1,12.7,35.9,35.9,35.9c16.7,0,28-6.7,33-19.1c5.1-2.8,13-10.2,15.4-17.7
		C118.4,70.5,118.3,67.5,116.9,64.8z M68.8,107.4c-26.9,0-32.6-17.7-32.6-32.6c0-2.3,0.7-6,1.4-8.8c5.1,4.1,18.5,6,31.2,6
		c12.6,0,25.9-1.9,31.1-6c-0.1,0.5,0,1.1,0.4,1.6c0.1,0.1,0.1,0.1,0.2,0.2c0.7,1.9,0.9,3,0.9,7c0,4.9-0.6,10.2-2.5,15
		c0,0.1,0,0.1-0.1,0.2C95.2,99.6,86.7,107.4,68.8,107.4z M114.1,72.9c-1.6,4.9-6.3,10.3-10.7,13.7c0.9-3.6,1.3-7.5,1.3-11.8
		c0-4.3-0.3-5.8-1.1-8c1.7-1.4,4.8-3.4,7.2-3c1.3,0.2,2.3,1.1,3.1,2.6C114.9,68.2,115,70.4,114.1,72.9z"/>
	<path class="st0" d="M57.3,55.2c-0.2,1.3-0.2,2.6-0.2,4c0,0.9,0.7,1.7,1.7,1.7c0.9,0,1.7-0.7,1.7-1.7c0-1.3,0.1-2.5,0.2-3.6
		c0.4-3.3,1.4-5.5,2.4-7.9c1.4-3.1,2.8-6.4,2.8-11.9c0-5.6-1.5-8.2-2.9-10.8c-1.3-2.4-2.5-4.6-2.5-9.7c0-0.9-0.7-1.7-1.7-1.7
		c-0.9,0-1.7,0.7-1.7,1.7c0,5.9,1.6,8.8,3,11.3c1.3,2.4,2.5,4.5,2.5,9.2c0,4.8-1.2,7.6-2.5,10.5C58.9,48.9,57.8,51.5,57.3,55.2z"/>
	<path class="st0" d="M46.6,47.7c0,0.9,0.7,1.7,1.7,1.7c0.9,0,1.7-0.7,1.7-1.7c0-2.8,0.6-4,1.4-5.3c0.8-1.5,1.7-3.1,1.7-6.5
		c0-3.4-0.9-5.1-1.7-6.6c-0.7-1.3-1.4-2.5-1.4-5.3c0-0.9-0.7-1.7-1.7-1.7c-0.9,0-1.7,0.7-1.7,1.7c0,3.6,1,5.3,1.8,6.9
		c0.7,1.3,1.3,2.4,1.3,4.9c0,2.5-0.6,3.6-1.3,4.9C47.6,42.3,46.6,44,46.6,47.7z"/>
</g>
</svg>
