<?xml version="1.0" encoding="utf-8"?>
<!-- Generator: Adobe Illustrator 23.0.3, SVG Export Plug-In . SVG Version: 6.00 Build 0)  -->
<svg version="1.1" id="Vrstva_1" xmlns="http://www.w3.org/2000/svg" xmlns:xlink="http://www.w3.org/1999/xlink" x="0px" y="0px"
	 viewBox="0 0 141.7 141.7" style="enable-background:new 0 0 141.7 141.7;" xml:space="preserve">
<style type="text/css">
	.st0{fill:#44A335;}
</style>
<g>
	<path class="st0" d="M109.2,32.4c-12.9-12.9-33.8-12.9-46.7,0c-8.1,8.1-8.6,16.5-9.2,24c-0.4,6-0.8,11.2-4.7,15.5
		c-2.3,0.1-4.5,1-6.1,2.6L26.4,90.7c-3,3-3.4,7.5-1.3,10.9c-3.3,4.2-3,10.3,0.9,14.2c2.1,2.1,4.9,3.1,7.6,3.1c2.3,0,4.7-0.8,6.6-2.3
		c1.4,0.9,3,1.3,4.6,1.3c2.3,0,4.6-0.9,6.3-2.6l16.2-16.2c1.8-1.8,2.8-3.8,2.9-5.8c4-3.8,9.1-4.3,15-4.8c7.5-0.7,16-1.4,24-9.4
		C122.1,66.3,122.1,45.3,109.2,32.4z M28.2,113.5c-2.6-2.6-2.9-6.5-1-9.4l10.4,10.4C34.8,116.4,30.8,116.1,28.2,113.5z M107,76.9
		c-7.2,7.2-14.8,7.9-22.1,8.5c-5.7,0.5-11.1,1-15.7,4.6c-0.8-0.7-1.9-1-3.1-1.3c-2.8-0.7-7.2-1.8-11.5-8C54,80,53,79.9,52.3,80.4
		c-0.7,0.5-0.9,1.5-0.4,2.2c5,7.1,10.2,8.4,13.3,9.2c0.6,0.2,1.3,0.3,1.6,0.5c0.3,1.5-0.3,3-1.9,4.6l-16.2,16.2
		c-2.2,2.2-5.8,2.2-8.1,0L28.7,101c-2.2-2.2-2.2-5.8,0-8.1l16.2-16.2c1.2-1.2,2.8-1.8,4.4-1.7c0,0,0,0,0,0c0.1,0,0.2,0,0.3,0
		c0,0,0,0,0.1,0c0.1,0,0.2,0,0.2-0.1c0,0,0,0,0.1,0c0.1,0,0.2-0.1,0.2-0.1c0,0,0,0,0,0c0.1,0,0.1-0.1,0.2-0.1c0,0,0,0,0,0
		c0,0,0.1,0,0.1-0.1c5.1-5.3,5.6-11.4,6-18c0.5-7.2,1-14.7,8.2-21.9c11.6-11.6,30.6-11.6,42.2,0C118.6,46.3,118.6,65.3,107,76.9z"/>
	<path class="st0" d="M69.2,39.5c-0.6,0.6-0.6,1.6,0,2.3c0.3,0.3,0.7,0.5,1.1,0.5c0.4,0,0.8-0.2,1.1-0.5c3.8-3.8,8.9-5.9,14.3-5.9
		c5.4,0,10.5,2.1,14.3,5.9c0.6,0.6,1.6,0.6,2.3,0c0.6-0.6,0.6-1.6,0-2.3C93.2,30.4,78.3,30.4,69.2,39.5z"/>
</g>
</svg>
