<?xml version="1.0" encoding="utf-8"?>
<!-- Generator: Adobe Illustrator 23.0.3, SVG Export Plug-In . SVG Version: 6.00 Build 0)  -->
<svg version="1.1" id="Vrstva_1" xmlns="http://www.w3.org/2000/svg" xmlns:xlink="http://www.w3.org/1999/xlink" x="0px" y="0px"
	 viewBox="0 0 141.7 141.7" style="enable-background:new 0 0 141.7 141.7;" xml:space="preserve">
<style type="text/css">
	.st0{fill:#44A335;}
</style>
<g>
	<path class="st0" d="M102.6,25H39.7c-0.9,0-1.6,0.7-1.6,1.6s0.7,1.6,1.6,1.6h62.8c5.9,0,10.7,4.8,10.7,10.7v62.8
		c0,5.9-4.8,10.7-10.7,10.7H39.7c-5.9,0-10.7-4.8-10.7-10.7V38.9c0-0.9-0.7-1.6-1.6-1.6c-0.9,0-1.6,0.7-1.6,1.6v62.8
		c0,7.7,6.3,13.9,13.9,13.9h62.8c7.7,0,13.9-6.3,13.9-13.9V38.9C116.5,31.2,110.2,25,102.6,25z"/>
	<path class="st0" d="M48.6,39.2c-0.9,0-1.6,0.7-1.6,1.6v38.5c-3.7,0.7-6.4,4-6.4,7.9c0,3.9,2.8,7.1,6.4,7.9v6.4
		c0,0.9,0.7,1.6,1.6,1.6s1.6-0.7,1.6-1.6V95c3.7-0.7,6.4-4,6.4-7.9c0-3.9-2.8-7.1-6.4-7.9V40.8C50.2,39.9,49.5,39.2,48.6,39.2z"/>
	<path class="st0" d="M71.2,39.2c-0.9,0-1.6,0.7-1.6,1.6v21.7c-3.7,0.7-6.4,4-6.4,7.9c0,3.9,2.8,7.1,6.4,7.9v23.1
		c0,0.9,0.7,1.6,1.6,1.6c0.9,0,1.6-0.7,1.6-1.6V78.2c3.7-0.7,6.4-4,6.4-7.9c0-3.9-2.8-7.1-6.4-7.9V40.8C72.7,39.9,72,39.2,71.2,39.2
		z"/>
	<path class="st0" d="M93.7,39.2c-0.9,0-1.6,0.7-1.6,1.6v28.2c-3.7,0.7-6.4,4-6.4,7.9c0,3.9,2.8,7.1,6.4,7.9v16.7
		c0,0.9,0.7,1.6,1.6,1.6c0.9,0,1.6-0.7,1.6-1.6V84.6c3.7-0.7,6.4-4,6.4-7.9c0-3.9-2.8-7.1-6.4-7.9V40.8
		C95.3,39.9,94.6,39.2,93.7,39.2z"/>
</g>
</svg>
