<?xml version="1.0" encoding="utf-8"?>
<!-- Generator: Adobe Illustrator 23.0.3, SVG Export Plug-In . SVG Version: 6.00 Build 0)  -->
<svg version="1.1" id="Vrstva_1" xmlns="http://www.w3.org/2000/svg" xmlns:xlink="http://www.w3.org/1999/xlink" x="0px" y="0px"
	 viewBox="0 0 141.7 141.7" style="enable-background:new 0 0 141.7 141.7;" xml:space="preserve">
<style type="text/css">
	.st0{fill:#44A335;}
</style>
<g>
	<g>
		<path class="st0" d="M62.9,60.7H26.5c-0.9,0-1.5-0.7-1.5-1.5c0-0.9,0.7-1.5,1.5-1.5h36.4c0.9,0,1.5,0.7,1.5,1.5
			C64.5,60,63.8,60.7,62.9,60.7z"/>
	</g>
	<g>
		<path class="st0" d="M99,74.7H25.4c-0.9,0-1.5-0.7-1.5-1.5s0.7-1.5,1.5-1.5H99c0.9,0,1.5,0.7,1.5,1.5S99.8,74.7,99,74.7z"/>
	</g>
	<g>
		<path class="st0" d="M100.1,88.5H26.5c-0.9,0-1.5-0.7-1.5-1.5c0-0.9,0.7-1.5,1.5-1.5h73.5c0.9,0,1.5,0.7,1.5,1.5
			C101.6,87.8,100.9,88.5,100.1,88.5z"/>
	</g>
	<g>
		<path class="st0" d="M99,74.7c-0.9,0-1.5-0.7-1.5-1.5s0.7-1.5,1.5-1.5c8.8,0,16-7.2,16-16c0-8.8-7.2-16-16-16s-16,7.2-16,16
			c0,0.9-0.7,1.5-1.5,1.5c-0.9,0-1.5-0.7-1.5-1.5c0-10.5,8.6-19.1,19.1-19.1s19.1,8.6,19.1,19.1C118.1,66.1,109.5,74.7,99,74.7z"/>
	</g>
	<g>
		<path class="st0" d="M62.9,60.7c-0.9,0-1.5-0.7-1.5-1.5c0-0.9,0.7-1.5,1.5-1.5c5.1,0,9.2-4.1,9.2-9.2c0-5.1-4.1-9.2-9.2-9.2
			c-5.1,0-9.2,4.1-9.2,9.2c0,0.9-0.7,1.5-1.5,1.5c-0.9,0-1.5-0.7-1.5-1.5c0-6.8,5.5-12.3,12.3-12.3c6.8,0,12.3,5.5,12.3,12.3
			C75.3,55.2,69.7,60.7,62.9,60.7z"/>
	</g>
	<g>
		<path class="st0" d="M100.1,110c-6.8,0-12.3-5.5-12.3-12.3c0-0.9,0.7-1.5,1.5-1.5c0.9,0,1.5,0.7,1.5,1.5c0,5.1,4.1,9.2,9.2,9.2
			c5.1,0,9.2-4.1,9.2-9.2c0-5.1-4.1-9.2-9.2-9.2c-0.9,0-1.5-0.7-1.5-1.5c0-0.9,0.7-1.5,1.5-1.5c6.8,0,12.3,5.5,12.3,12.3
			C112.4,104.5,106.9,110,100.1,110z"/>
	</g>
</g>
</svg>
