<?xml version="1.0" encoding="utf-8"?>
<!-- Generator: Adobe Illustrator 23.0.3, SVG Export Plug-In . SVG Version: 6.00 Build 0)  -->
<svg version="1.1" id="Vrstva_1" xmlns="http://www.w3.org/2000/svg" xmlns:xlink="http://www.w3.org/1999/xlink" x="0px" y="0px"
     viewBox="0 0 138.3 74.1" style="enable-background:new 0 0 138.3 74.1;" xml:space="preserve">
<style type="text/css">
	.st0{fill:none;}
	.st1{fill:url(#SVGID_1_);}
	.st2{fill:url(#SVGID_2_);}
	.st3{fill:url(#SVGID_3_);}
	.st4{fill:url(#SVGID_4_);}
	.st5{fill:#344F3C;}
	.st6{fill:#45AC34;}
	.st7{fill:url(#SVGID_5_);}
</style>
<g>
	<polygon class="st0" points="84.2,54.1 84.2,54.1 80,56.5 	"/>
	<polygon class="st0" points="74.7,59.5 74.7,59.5 74.7,59.5 	"/>
	<polygon class="st0" points="74.7,59.5 74.7,59.5 75.6,59 74.7,59.5 	"/>
	<linearGradient id="SVGID_1_" gradientUnits="userSpaceOnUse" x1="0" y1="41.2359" x2="86.0227" y2="41.2359">
		<stop  offset="0.5306" style="stop-color:#279134"/>
		<stop  offset="1" style="stop-color:#1D6F27"/>
	</linearGradient>
	<path class="st1" d="M84.2,41l-8,4.6l-0.3,0.2l-1.7,1c0,0,0,0,0,0l0,0c-1.2,0.7-2.8,1.1-4.6,1.2c0,0,0,0-0.1,0c-0.1,0-0.2,0-0.4,0
		c-0.1,0-0.2,0-0.4,0c0,0,0,0-0.1,0c-1.7-0.1-3.4-0.5-4.6-1.2l0,0c0,0,0,0,0,0l-3-1.7l-6.7-3.9L14,17.9l-5.6-3.3l-3.3-1.9l-3.1-1.8
		c0,0,0,0,0,0C0.8,10.2,0.1,9.3,0,8.3l0,0v25.8c0,0,0,0,0,0c0,0,0,0,0,0.1c0,1.1,0.7,2.1,1.9,2.9c0,0,0,0,0,0l0.8,0.4l2.4,1.4
		l3.3,1.9L61,71.2l3,1.7c0.9,0.5,1.9,0.9,3.2,1.1c0.6,0.1,1.3,0.1,1.9,0.1c-0.6,0-1.3,0-1.9-0.1c-1.3-0.2-2.3-0.6-3.2-1.1l-3-1.7
		l-8.9-5.1V53l8.9,5.1l3,1.7c0.9,0.5,1.9,0.9,3.2,1.1c2.5,0.4,5.1-0.1,6.9-1l0.6-0.4l0,0l0.9-0.5l4.4-2.5l4.2-2.4L86,53V40L84.2,41z
		"/>
	<linearGradient id="SVGID_2_" gradientUnits="userSpaceOnUse" x1="52.1279" y1="41.2359" x2="138.2587" y2="41.2359">
		<stop  offset="1.405423e-03" style="stop-color:#2C4634"/>
		<stop  offset="1" style="stop-color:#000000"/>
	</linearGradient>
	<path class="st2" d="M138.3,8.3L138.3,8.3c-0.1,1-0.8,1.9-1.9,2.6c0,0,0,0,0,0l-3.1,1.8l-3.3,1.9l-2,1.1v0L86,40v13l-1.9,1.1
		L80,56.5l-3.9,2.2L75.6,59l-0.9,0.5v0l0,0l0,0l-0.6,0.4c-1.7,1-4.3,1.4-6.9,1c-1.3-0.2-2.3-0.6-3.2-1.1l-3-1.7L52.1,53v13l8.9,5.1
		l3,1.7c0.9,0.5,1.9,0.9,3.2,1.1c0.6,0.1,1.3,0.1,1.9,0.1c1.9,0,3.7-0.4,5-1.2l2.1-1.2l9.9-5.7l0,0l43.9-25.4l3.3-1.9l2.4-1.4
		l0.8-0.4c0,0,0,0,0,0c1.2-0.8,2-1.8,1.9-2.9c0,0,0,0,0-0.1c0,0,0,0,0,0V8.3z"/>
	<linearGradient id="SVGID_3_" gradientUnits="userSpaceOnUse" x1="86.0227" y1="39.9715" x2="86.0227" y2="39.9715">
		<stop  offset="1.405423e-03" style="stop-color:#2C4634"/>
		<stop  offset="1" style="stop-color:#000000"/>
	</linearGradient>
	<polygon class="st3" points="86,40 86,40 86,40 	"/>
	<linearGradient id="SVGID_4_" gradientUnits="userSpaceOnUse" x1="75.6033" y1="57.7598" x2="80.0146" y2="57.7598">
		<stop  offset="1.405423e-03" style="stop-color:#2C4634"/>
		<stop  offset="1" style="stop-color:#000000"/>
	</linearGradient>
	<polygon class="st4" points="76.2,58.7 80,56.5 75.6,59 	"/>
	<path class="st5" d="M69.1,48.1c-0.1,0-0.2,0-0.4,0C68.8,48.1,69,48.1,69.1,48.1z"/>
	<polygon class="st5" points="14,17.9 14,17.9 15.6,18.8 	"/>
	<polygon class="st5" points="14,17.9 54.3,41.2 15.6,18.8 	"/>
	<path class="st5" d="M69.5,48C69.5,48,69.5,48,69.5,48C69.5,48,69.5,48,69.5,48z"/>
	<polygon class="st5" points="74.1,46.8 75.8,45.9 74.1,46.8 	"/>
	<path class="st5" d="M64,46.8L64,46.8c1.2,0.7,2.9,1.1,4.6,1.2c-0.5,0-0.9-0.1-1.4-0.1C66,47.7,64.9,47.3,64,46.8z"/>
	<rect x="86" y="40" class="st5" width="0" height="0"/>
	<polygon class="st6" points="77.1,45.1 75.8,45.9 76.2,45.7 84.2,41 84.2,41 	"/>
	<path class="st6" d="M68.7,48C68.7,48,68.7,48,68.7,48C68.7,48,68.7,48,68.7,48z"/>
	<path class="st6" d="M69.5,48c1.7-0.1,3.4-0.5,4.6-1.2l0,0c-0.9,0.5-1.9,0.9-3.2,1.1C70.5,48,70,48,69.5,48z"/>
	<polygon class="st6" points="54.3,41.2 61,45.1 64,46.8 64,46.8 62,45.7 	"/>
	<path class="st6" d="M69.4,48c-0.1,0-0.2,0-0.4,0C69.2,48.1,69.3,48.1,69.4,48z"/>
	<polygon class="st6" points="84.2,41 84.2,41 86,40 86,40 	"/>
	<polygon class="st6" points="84.2,41 86,40 86,40 84.2,41 	"/>
	<g>
		<path class="st5" d="M62,45.7l-7.7-4.4L15.9,18.9l0,0L61,45.1l1.3,0.7l1.7,1c0.3,0.2,0.7,0.4,1.1,0.5c-0.4-0.1-0.7-0.3-1.1-0.5
			L62,45.7z"/>
		<path class="st5" d="M68.6,48c-0.5,0-0.9-0.1-1.4-0.1c-0.8-0.1-1.5-0.3-2.1-0.6c0.6,0.2,1.4,0.4,2.1,0.6C67.7,48,68.2,48,68.6,48
			C68.7,48,68.7,48,68.6,48c0.2,0,0.3,0,0.4,0l0,0C69,48.1,68.8,48.1,68.6,48C68.7,48,68.7,48,68.6,48z"/>
		<path class="st5" d="M138,7c-0.3-0.8-1-1.4-2-1.9c0,0,0,0,0,0l-1.8-1l-4.4-2.5l-0.8-0.4c0,0,0,0,0,0c-1.7-0.9-4.2-1.4-6.7-1
			c-1.2,0.2-2.2,0.5-3.1,1c0,0,0,0,0,0l-0.8,0.4L69.1,30.2l0,0l15.1,8.7L86,40L84.2,41l0,0l0.3-0.2L86,40l43.9-25.4l3.3-1.9l3.1-1.8
			c0,0,0,0,0,0c1.1-0.7,1.8-1.6,1.9-2.6C138.3,7.9,138.2,7.5,138,7z"/>
		<path class="st6" d="M69.5,48C69.5,48,69.5,48,69.5,48c-0.2,0-0.3,0-0.4,0l0,0C69.2,48.1,69.3,48.1,69.5,48
			C69.5,48,69.5,48,69.5,48c0.5,0,0.9-0.1,1.4-0.1c0.6-0.1,1.2-0.2,1.7-0.4c-0.5,0.2-1.1,0.3-1.7,0.4C70.5,48,70,48,69.5,48z"/>
		<path class="st6" d="M76.2,45.7l-2,1.2c-0.3,0.2-0.7,0.4-1.1,0.5c0.4-0.1,0.7-0.3,1.1-0.5l1.7-1l1.3-0.7l7.1-4.1l0,0l-0.3,0.2
			L76.2,45.7z"/>
	</g>
	<path class="st6" d="M84.2,38.9l-15.1-8.7L19.7,1.6l-0.8-0.4c0,0,0,0,0,0c-0.8-0.5-1.9-0.8-3.1-1c-2.5-0.4-5,0-6.7,1c0,0,0,0,0,0
		L8.4,1.6L4,4.1l-1.8,1c0,0,0,0,0,0C1.3,5.6,0.6,6.3,0.2,7C0,7.5,0,7.9,0,8.3c0.1,1,0.8,1.9,1.9,2.6c0,0,0,0,0,0l3.1,1.8l3.3,1.9
		l5.6,3.3l1.9,1.1l38.5,22.3l7.7,4.4l2,1.2c0.3,0.2,0.7,0.4,1.1,0.5c0.6,0.2,1.4,0.4,2.1,0.6c0.5,0.1,0.9,0.1,1.4,0.1c0,0,0,0,0.1,0
		c0.1,0,0.2,0,0.4,0c0.1,0,0.2,0,0.4,0c0,0,0,0,0.1,0c0.5,0,0.9-0.1,1.4-0.1c0.6-0.1,1.2-0.2,1.7-0.4c0.1,0,0.3-0.1,0.4-0.1
		c0.4-0.1,0.7-0.3,1.1-0.5l2-1.2l7.7-4.4l0.3-0.2L86,40L84.2,38.9z"/>
	<linearGradient id="SVGID_5_" gradientUnits="userSpaceOnUse" x1="1.033655e-03" y1="24.0275" x2="138.2577" y2="24.0275">
		<stop  offset="0" style="stop-color:#FFFFFF;stop-opacity:0.2"/>
		<stop  offset="1" style="stop-color:#FFFFFF;stop-opacity:0"/>
	</linearGradient>
	<path class="st7" d="M138,7c-0.3-0.8-1-1.4-2-1.9c0,0,0,0,0,0l-1.8-1l-4.4-2.5l-0.8-0.4c0,0,0,0,0,0c-1.7-0.9-4.2-1.4-6.7-1
		c-1.2,0.2-2.2,0.5-3.1,1c0,0,0,0,0,0l-0.8,0.4L69.1,30.2L19.7,1.6l-0.8-0.4c0,0,0,0,0,0c-0.8-0.5-1.9-0.8-3.1-1c-2.5-0.4-5,0-6.7,1
		c0,0,0,0,0,0L8.4,1.6L4,4.1l-1.8,1c0,0,0,0,0,0C1.3,5.6,0.6,6.3,0.2,7C0,7.5,0,7.9,0,8.3c0.1,1,0.8,1.9,1.9,2.6c0,0,0,0,0,0
		l3.1,1.8l3.3,1.9l5.6,3.3l1.9,1.1l38.5,22.3l7.7,4.4l2,1.2c0.3,0.2,0.7,0.4,1.1,0.5c0.6,0.2,1.4,0.4,2.1,0.6
		c0.5,0.1,0.9,0.1,1.4,0.1c0,0,0,0,0.1,0c0.1,0,0.2,0,0.4,0c0.1,0,0.2,0,0.4,0c0,0,0,0,0.1,0c0.5,0,0.9-0.1,1.4-0.1
		c0.6-0.1,1.2-0.2,1.7-0.4c0.1,0,0.3-0.1,0.4-0.1c0.4-0.1,0.7-0.3,1.1-0.5l2-1.2l7.7-4.4l0.3-0.2L86,40l43.9-25.4l3.3-1.9l3.1-1.8
		c0,0,0,0,0,0c1.1-0.7,1.8-1.6,1.9-2.6C138.3,7.9,138.2,7.5,138,7z"/>
</g>
</svg>
